<svg width="24" height="25" viewBox="0 0 24 25" fill="none" xmlns="http://www.w3.org/2000/svg">
<path d="M23.999 12.3168C23.9558 14.4266 23.9444 16.0637 23.8823 17.6985C23.8706 19.0926 23.4855 20.4565 22.7693 21.6405C22.3005 22.382 21.6878 23.0162 20.9696 23.5032C20.2514 23.9902 19.4432 24.3197 18.5954 24.4709C17.573 24.6548 16.5357 24.7367 15.498 24.7154C13.7808 24.7318 12.0635 24.7481 10.3444 24.7308C8.99505 24.7177 7.64128 24.7157 6.29833 24.602C4.06113 24.4124 2.23322 23.4375 1.05308 21.3947C0.514995 20.4418 0.200531 19.3731 0.134673 18.2734C-0.0771208 15.3973 0.0262323 12.5149 0.0186 9.63511C0.017964 8.65002 0.0558071 7.66003 0.137218 6.67951C0.333429 4.30765 1.2741 2.36917 3.34975 1.14451C4.25675 0.620846 5.26703 0.314285 6.30533 0.247668C9.16741 0.0254177 12.0327 0.141772 14.8967 0.129679C15.8081 0.125757 16.723 0.165304 17.6315 0.249955C19.988 0.46959 21.8868 1.48736 23.0517 3.69385C23.5231 4.57522 23.7918 5.55586 23.8372 6.56054C23.924 8.63531 23.9571 10.7114 24 12.3168H23.999ZM21.7784 12.0923H21.7902C21.7902 11.1056 21.8153 10.1178 21.7832 9.1321C21.7689 8.13905 21.7026 7.14751 21.5844 6.1618C21.4698 5.27181 21.0781 4.44379 20.4679 3.80136C19.8578 3.15894 19.0618 2.73657 18.1989 2.59731C17.151 2.42614 16.0904 2.35166 15.0296 2.37473C13.0155 2.34575 11.0009 2.34575 8.98583 2.37473C8.00354 2.3848 7.02242 2.44742 6.04647 2.56233C5.18526 2.6491 4.37353 3.01634 3.72964 3.6105C3.08574 4.20466 2.64335 4.99467 2.46695 5.86536C2.25878 6.96791 2.1711 8.09092 2.20555 9.21349C2.17375 11.051 2.17598 12.8894 2.19728 14.7269C2.21106 15.9035 2.25866 17.0801 2.34007 18.2568C2.38706 19.0448 2.63349 19.8065 3.05495 20.4665C3.88178 21.7503 5.11947 22.2883 6.5486 22.3916C7.76912 22.4798 8.99569 22.504 10.2197 22.5161C11.8511 22.5321 13.4838 22.5305 15.1148 22.4945C16.1046 22.4943 17.0933 22.426 18.0742 22.2899C18.884 22.1946 19.6458 21.846 20.2567 21.2914C20.8675 20.7367 21.298 20.0028 21.49 19.1886C21.7002 18.3165 21.7949 17.4193 21.7717 16.5213C21.7937 15.0453 21.7778 13.5686 21.7778 12.0923" fill="white"/>
</svg>
