<svg width="36" height="36" viewBox="0 0 36 36" fill="none" xmlns="http://www.w3.org/2000/svg">
<path d="M35.678 15.6933C34.7709 7.52916 28.2655 1.02376 20.1143 0.116631C19.4664 0.0388769 18.7925 0 18.1316 0C17.4707 0 16.7968 0.0388769 16.1489 0.116631C7.97176 1.02376 1.46637 7.52916 0.559238 15.6933C0.481484 16.3413 0.455566 17.0151 0.455566 17.676C0.455566 18.3369 0.494443 19.0108 0.559238 19.6587C1.47932 27.8229 7.97176 34.3283 16.1359 35.2354C16.7839 35.3132 17.4577 35.3391 18.1186 35.3391C18.7795 35.3391 19.4534 35.3002 20.1014 35.2354C28.2525 34.3153 34.7709 27.8229 35.678 19.6587C35.7558 19.0108 35.7947 18.3369 35.7947 17.676C35.7947 17.0151 35.7558 16.3413 35.678 15.6933ZM31.2849 13.8272C31.4145 13.9179 31.5571 13.9957 31.6867 14.0864C31.9329 14.9935 32.0884 15.9395 32.1402 16.9114C32.1402 16.9374 32.1402 16.9633 32.1402 17.0022H27.0992C27.0474 15.0842 26.7752 13.2311 26.3476 11.4816C26.6068 11.5724 26.853 11.6631 27.1122 11.7538H27.1381C27.6305 11.9482 28.097 12.1555 28.5506 12.3629L28.6154 12.3888C29.0301 12.5832 29.4448 12.7775 29.8206 12.9849C29.8724 13.0108 29.9372 13.0367 29.989 13.0756C30.326 13.257 30.65 13.4384 30.961 13.6199C31.0776 13.6847 31.1813 13.7624 31.2979 13.8272H31.2849ZM31.6867 21.2786C31.5182 21.3823 31.3497 21.4989 31.1813 21.6026L31.0776 21.6674C30.7277 21.8747 30.3649 22.0821 29.989 22.2894C29.9242 22.3283 29.8595 22.3542 29.7947 22.3931C29.4707 22.5616 29.1208 22.73 28.7709 22.8985C28.4988 23.0281 28.2396 23.1447 27.9674 23.2613C27.8508 23.3132 27.7212 23.365 27.5916 23.4168C27.1899 23.5853 26.7752 23.7408 26.3476 23.8834C26.7752 22.1339 27.0474 20.2808 27.0992 18.3629H32.1532C32.1014 19.3736 31.9588 20.3456 31.6996 21.2786H31.6867ZM25.1942 29.7797C24.7407 30.0389 24.2612 30.2981 23.7687 30.5054C24.5852 29.0281 25.3109 27.3305 25.894 25.4644C27.7601 24.8812 29.4707 24.1425 30.948 23.3261C29.7558 26.0346 27.7212 28.2894 25.1813 29.7797H25.1942ZM22.11 4.7041C22.3303 5.054 22.5376 5.42981 22.745 5.81857C22.7839 5.88337 22.8098 5.93521 22.8357 6C23.0042 6.33693 23.1856 6.67387 23.3411 7.03672C23.4707 7.30886 23.5873 7.56803 23.7039 7.84017C23.7558 7.9568 23.8076 8.08639 23.8595 8.20302C24.0279 8.61771 24.1834 9.01944 24.326 9.44708C22.5765 9.01944 20.7234 8.7473 18.7925 8.69546V3.65443C19.8033 3.70626 20.7752 3.84881 21.7212 4.10799C21.8379 4.27646 21.9415 4.45788 22.0582 4.63931L22.11 4.71706V4.7041ZM18.8055 10.0691C20.9566 10.1339 22.9782 10.4838 24.8314 10.9892C25.3368 12.7905 25.6737 14.7732 25.7385 16.8726C25.7385 16.9114 25.7385 16.9503 25.7385 16.9892H18.8055V10.0691V10.0691ZM18.8055 25.2959V18.3629H25.7385C25.6737 20.527 25.3238 22.5486 24.8184 24.3758C23.0042 24.8812 21.0214 25.2181 18.9091 25.2829C18.8703 25.2829 18.8314 25.2829 18.7925 25.2829L18.8055 25.2959ZM30.961 12.013C29.4836 11.2095 27.786 10.4708 25.9199 9.90065C25.3497 8.03456 24.5981 6.31101 23.7817 4.83369C26.4901 6.02592 28.745 8.06047 30.2223 10.5875C30.4944 11.054 30.7407 11.5205 30.948 12.013H30.961ZM18.8055 31.6976V26.6566C20.4772 26.6048 22.0841 26.3974 23.6262 26.0605C23.8595 26.0086 24.1057 25.9698 24.3389 25.905C24.2482 26.1641 24.1575 26.4233 24.0538 26.6695C23.8595 27.1749 23.6521 27.6544 23.4448 28.108L23.4189 28.1469C23.2245 28.5745 23.0171 28.9892 22.8098 29.378C22.7839 29.4298 22.7579 29.4816 22.732 29.5205C22.5506 29.8575 22.3562 30.1944 22.1748 30.5054C22.11 30.6091 22.0452 30.7257 21.9804 30.8294C21.8897 30.9719 21.8119 31.1015 21.7212 31.2441C20.8141 31.4903 19.8551 31.6458 18.8703 31.6976C18.8443 31.6976 18.8184 31.6976 18.7925 31.6976H18.8055ZM17.4448 31.6976C16.434 31.6458 15.462 31.5032 14.529 31.2441C14.4124 31.0756 14.3087 30.8942 14.1921 30.7257L14.1532 30.6609C13.9329 30.2981 13.6996 29.9093 13.4923 29.4946C13.272 29.067 13.0387 28.6134 12.8314 28.1469C12.5074 27.4471 12.2093 26.6955 11.9242 25.905C13.6737 26.3326 15.5398 26.6048 17.4577 26.6566V31.7106L17.4448 31.6976ZM5.2763 23.3261C6.75362 24.1425 8.46421 24.8812 10.3303 25.4644C10.8098 26.9935 11.38 28.406 12.0279 29.676C12.1705 29.9611 12.3001 30.2462 12.4556 30.5184C9.2547 29.1058 6.68883 26.54 5.2763 23.3391V23.3261ZM4.95233 21.5248C4.82274 21.4341 4.68019 21.3564 4.5506 21.2657C4.29142 20.3326 4.14887 19.3477 4.09703 18.3499H9.15103C9.20287 20.0086 9.41021 21.6156 9.74714 23.1577C9.79898 23.3909 9.83786 23.6371 9.90265 23.8704C9.64347 23.7797 9.39725 23.689 9.15103 23.5983H9.12511C8.63267 23.4039 8.16615 23.1965 7.71259 23.0022L7.64779 22.9762C7.2331 22.7819 6.81842 22.5875 6.44261 22.3801C6.39077 22.3542 6.32598 22.3283 6.27414 22.2894C5.93721 22.108 5.61323 21.9266 5.30222 21.7451C5.18559 21.6803 5.06896 21.6026 4.96529 21.5378L4.95233 21.5248ZM5.15967 13.6847C5.52252 13.4644 5.91129 13.2441 6.31302 13.0238H6.33894C6.75362 12.7905 7.19423 12.5702 7.66075 12.3629H7.68667C8.14023 12.1425 8.63267 11.9352 9.12511 11.7408H9.15103C9.39725 11.6371 9.65643 11.5464 9.91561 11.4557C9.48796 13.2052 9.21583 15.0583 9.16399 16.9762H4.10999C4.16183 15.9654 4.30438 14.9935 4.56356 14.0605C4.73202 13.9568 4.90049 13.8402 5.08192 13.7365L5.17263 13.6847H5.15967ZM12.7925 7.26998C12.7925 7.26998 12.8184 7.20518 12.8314 7.17927C13.0258 6.76458 13.2201 6.37581 13.4145 5.98704C13.4534 5.92225 13.4793 5.85745 13.5182 5.80562C13.6996 5.46868 13.8811 5.14471 14.0754 4.83369C14.1402 4.71706 14.205 4.61339 14.2828 4.49676C14.3735 4.35421 14.4512 4.21166 14.542 4.08207C15.475 3.82289 16.4599 3.68035 17.4577 3.62851V8.68251C15.786 8.73434 14.1791 8.95464 12.637 9.27862C12.4037 9.33045 12.1575 9.36933 11.9242 9.42117C12.015 9.16199 12.1057 8.91577 12.1964 8.66955V8.63067C12.3908 8.15119 12.5981 7.68467 12.7925 7.24406V7.26998ZM10.5247 16.9892C10.5895 14.851 10.9394 12.8164 11.4448 10.9892C13.2849 10.4708 15.3065 10.121 17.4577 10.0691V17.0022H10.5247V16.9892ZM12.4815 4.82073C11.6651 6.29806 10.9134 8.0216 10.3433 9.88769C8.80114 10.3542 7.37565 10.9503 6.09272 11.5983C5.82058 11.7279 5.54844 11.8575 5.28926 12C6.70179 8.79913 9.26766 6.23326 12.4685 4.82073H12.4815ZM17.4577 25.2829C15.3065 25.2181 13.2849 24.8683 11.4448 24.3629C10.9394 22.5356 10.5895 20.5011 10.5247 18.3499H17.4577V25.2829Z" fill="white"/>
</svg>
