<?xml version="1.0" encoding="UTF-8"?>
<svg xmlns="http://www.w3.org/2000/svg" xmlns:xlink="http://www.w3.org/1999/xlink" width="36pt" height="36pt" viewBox="0 0 36 36" version="1.1">
<defs>
<radialGradient id="radial0" gradientUnits="userSpaceOnUse" cx="673.845" cy="1118.777" fx="673.845" fy="1118.777" r="646.025" gradientTransform="matrix(0.116148,-0.0195011,0.0118588,0.0704973,-85.797148,-27.143599)">
<stop offset="0" style="stop-color:rgb(99.607843%,83.529412%,46.27451%);stop-opacity:1;"/>
<stop offset="0.263" style="stop-color:rgb(95.686275%,44.313725%,20%);stop-opacity:1;"/>
<stop offset="0.609" style="stop-color:rgb(73.72549%,18.823529%,50.588235%);stop-opacity:1;"/>
<stop offset="1" style="stop-color:rgb(29.803922%,38.823529%,82.352941%);stop-opacity:1;"/>
</radialGradient>
<radialGradient id="radial1" gradientUnits="userSpaceOnUse" cx="673.845" cy="1118.777" fx="673.845" fy="1118.777" r="646.025" gradientTransform="matrix(0.116148,-0.0195011,0.0118588,0.0704973,-85.797148,-27.143599)">
<stop offset="0" style="stop-color:rgb(99.607843%,83.529412%,46.27451%);stop-opacity:1;"/>
<stop offset="0.263" style="stop-color:rgb(95.686275%,44.313725%,20%);stop-opacity:1;"/>
<stop offset="0.609" style="stop-color:rgb(73.72549%,18.823529%,50.588235%);stop-opacity:1;"/>
<stop offset="1" style="stop-color:rgb(29.803922%,38.823529%,82.352941%);stop-opacity:1;"/>
</radialGradient>
<radialGradient id="radial2" gradientUnits="userSpaceOnUse" cx="673.845" cy="1118.777" fx="673.845" fy="1118.777" r="646.025" gradientTransform="matrix(0.116148,-0.0195011,0.0118588,0.0704973,-85.797148,-27.143599)">
<stop offset="0" style="stop-color:rgb(99.607843%,83.529412%,46.27451%);stop-opacity:1;"/>
<stop offset="0.263" style="stop-color:rgb(95.686275%,44.313725%,20%);stop-opacity:1;"/>
<stop offset="0.609" style="stop-color:rgb(73.72549%,18.823529%,50.588235%);stop-opacity:1;"/>
<stop offset="1" style="stop-color:rgb(29.803922%,38.823529%,82.352941%);stop-opacity:1;"/>
</radialGradient>
</defs>
<g id="surface1">
<path style=" stroke:none;fill-rule:nonzero;fill:url(#radial0);" d="M 18.015625 8.828125 C 17.699219 8.828125 17.386719 8.84375 17.078125 8.875 C 16.769531 8.90625 16.464844 8.953125 16.164062 9.015625 C 15.867188 9.078125 15.574219 9.152344 15.285156 9.242188 L 14.441406 9.554688 L 13.636719 9.941406 L 12.875 10.402344 L 12.167969 10.933594 L 11.511719 11.527344 L 10.917969 12.183594 L 10.386719 12.890625 L 9.925781 13.648438 L 9.535156 14.453125 C 9.417969 14.726562 9.316406 15.011719 9.226562 15.296875 C 9.136719 15.585938 9.058594 15.878906 8.996094 16.175781 C 8.9375 16.476562 8.890625 16.78125 8.855469 17.089844 C 8.824219 17.398438 8.808594 17.710938 8.808594 18.027344 C 8.808594 18.34375 8.824219 18.65625 8.855469 18.964844 C 8.886719 19.269531 8.933594 19.574219 8.996094 19.875 C 9.058594 20.171875 9.136719 20.464844 9.226562 20.753906 C 9.316406 21.042969 9.417969 21.324219 9.535156 21.597656 L 9.925781 22.402344 L 10.386719 23.160156 L 10.917969 23.867188 L 11.511719 24.523438 L 12.167969 25.117188 L 12.875 25.648438 L 13.636719 26.109375 L 14.441406 26.496094 L 15.285156 26.808594 L 16.164062 27.035156 C 16.46875 27.097656 16.773438 27.144531 17.078125 27.175781 C 17.390625 27.207031 17.703125 27.222656 18.015625 27.222656 C 18.332031 27.222656 18.644531 27.207031 18.953125 27.175781 C 19.261719 27.144531 19.5625 27.097656 19.867188 27.035156 L 20.746094 26.808594 L 21.589844 26.496094 L 22.394531 26.109375 L 23.15625 25.648438 L 23.863281 25.117188 L 24.519531 24.523438 L 25.113281 23.867188 L 25.644531 23.160156 L 26.109375 22.402344 L 26.496094 21.597656 L 26.808594 20.753906 C 26.898438 20.464844 26.972656 20.171875 27.035156 19.875 L 27.175781 18.960938 C 27.207031 18.65625 27.222656 18.339844 27.222656 18.027344 C 27.222656 17.710938 27.207031 17.398438 27.175781 17.089844 C 27.144531 16.78125 27.097656 16.476562 27.035156 16.175781 C 26.972656 15.878906 26.898438 15.585938 26.808594 15.296875 L 26.496094 14.453125 L 26.109375 13.648438 L 25.644531 12.890625 L 25.113281 12.183594 L 24.519531 11.527344 L 23.863281 10.933594 L 23.15625 10.402344 L 22.394531 9.941406 L 21.589844 9.554688 L 20.746094 9.242188 L 19.867188 9.015625 L 18.953125 8.875 C 18.640625 8.84375 18.328125 8.828125 18.015625 8.828125 Z M 18.015625 12.003906 C 18.226562 12.003906 18.433594 12.011719 18.636719 12.035156 L 19.234375 12.125 L 19.8125 12.273438 L 20.367188 12.472656 L 20.894531 12.726562 L 21.390625 13.027344 L 21.855469 13.371094 L 22.285156 13.761719 L 22.671875 14.1875 L 23.015625 14.648438 L 23.316406 15.148438 L 23.570312 15.671875 C 23.648438 15.855469 23.714844 16.039062 23.773438 16.226562 C 23.832031 16.417969 23.878906 16.609375 23.921875 16.808594 C 23.960938 17.003906 23.988281 17.203125 24.011719 17.40625 L 24.042969 18.027344 C 24.042969 18.234375 24.03125 18.441406 24.011719 18.644531 C 23.992188 18.847656 23.960938 19.050781 23.921875 19.246094 C 23.878906 19.441406 23.832031 19.636719 23.773438 19.824219 L 23.570312 20.378906 L 23.316406 20.90625 L 23.015625 21.402344 L 22.671875 21.867188 L 22.285156 22.292969 L 21.855469 22.679688 L 21.390625 23.027344 L 20.894531 23.328125 L 20.367188 23.578125 L 19.8125 23.78125 L 19.234375 23.929688 L 18.636719 24.019531 C 18.429688 24.039062 18.222656 24.050781 18.015625 24.050781 C 17.808594 24.050781 17.601562 24.039062 17.394531 24.019531 L 16.796875 23.929688 C 16.601562 23.886719 16.40625 23.839844 16.21875 23.78125 L 15.664062 23.578125 L 15.136719 23.328125 L 14.640625 23.027344 L 14.175781 22.679688 L 13.746094 22.292969 L 13.359375 21.867188 L 13.015625 21.402344 L 12.714844 20.90625 L 12.460938 20.378906 L 12.257812 19.824219 L 12.109375 19.246094 L 12.019531 18.644531 C 12 18.441406 11.988281 18.234375 11.988281 18.027344 C 11.988281 17.820312 12 17.613281 12.019531 17.40625 C 12.039062 17.203125 12.070312 17.003906 12.109375 16.808594 C 12.152344 16.613281 12.199219 16.417969 12.257812 16.226562 L 12.460938 15.675781 L 12.714844 15.148438 L 13.015625 14.648438 L 13.359375 14.1875 L 13.75 13.761719 L 14.175781 13.371094 L 14.640625 13.027344 L 15.136719 12.726562 L 15.664062 12.472656 C 15.84375 12.398438 16.027344 12.332031 16.21875 12.273438 L 16.796875 12.125 C 16.992188 12.085938 17.195312 12.054688 17.394531 12.035156 C 17.601562 12.011719 17.808594 12.003906 18.015625 12.003906 Z M 18.015625 12.003906 "/>
<path style=" stroke:none;fill-rule:nonzero;fill:url(#radial1);" d="M 27.59375 6.210938 C 27.523438 6.210938 27.449219 6.214844 27.375 6.222656 C 27.304688 6.230469 27.230469 6.242188 27.160156 6.257812 C 27.089844 6.269531 27.019531 6.289062 26.949219 6.308594 C 26.878906 6.332031 26.808594 6.359375 26.742188 6.386719 C 26.675781 6.414062 26.609375 6.445312 26.542969 6.480469 C 26.480469 6.515625 26.417969 6.554688 26.359375 6.597656 C 26.296875 6.640625 26.238281 6.683594 26.183594 6.730469 C 26.128906 6.777344 26.074219 6.828125 26.023438 6.882812 C 25.972656 6.933594 25.921875 6.988281 25.878906 7.046875 C 25.832031 7.105469 25.789062 7.164062 25.75 7.226562 C 25.710938 7.289062 25.675781 7.351562 25.640625 7.417969 C 25.609375 7.484375 25.578125 7.550781 25.550781 7.617188 C 25.527344 7.6875 25.503906 7.757812 25.484375 7.828125 C 25.464844 7.898438 25.449219 7.972656 25.433594 8.042969 C 25.421875 8.117188 25.414062 8.1875 25.410156 8.261719 C 25.40625 8.316406 25.402344 8.367188 25.402344 8.417969 C 25.402344 8.492188 25.40625 8.566406 25.414062 8.640625 C 25.421875 8.710938 25.433594 8.785156 25.445312 8.855469 C 25.460938 8.929688 25.480469 9 25.5 9.070312 C 25.523438 9.140625 25.546875 9.210938 25.578125 9.277344 C 25.605469 9.347656 25.636719 9.414062 25.671875 9.476562 C 25.707031 9.542969 25.746094 9.605469 25.785156 9.664062 C 25.828125 9.726562 25.871094 9.785156 25.917969 9.839844 C 25.964844 9.898438 26.015625 9.949219 26.066406 10 C 26.121094 10.054688 26.175781 10.101562 26.234375 10.148438 C 26.289062 10.191406 26.351562 10.234375 26.410156 10.277344 C 26.472656 10.316406 26.535156 10.351562 26.601562 10.386719 C 26.667969 10.417969 26.734375 10.449219 26.800781 10.476562 C 26.871094 10.503906 26.9375 10.527344 27.007812 10.546875 C 27.078125 10.566406 27.152344 10.582031 27.222656 10.59375 C 27.296875 10.605469 27.367188 10.613281 27.441406 10.621094 C 27.492188 10.625 27.542969 10.625 27.597656 10.625 C 27.667969 10.625 27.742188 10.621094 27.816406 10.613281 C 27.886719 10.605469 27.960938 10.597656 28.03125 10.582031 C 28.101562 10.566406 28.175781 10.550781 28.242188 10.527344 C 28.3125 10.503906 28.382812 10.480469 28.449219 10.453125 C 28.515625 10.421875 28.582031 10.390625 28.648438 10.355469 C 28.710938 10.320312 28.773438 10.28125 28.832031 10.242188 C 28.894531 10.199219 28.953125 10.152344 29.007812 10.105469 C 29.0625 10.058594 29.117188 10.007812 29.167969 9.957031 C 29.21875 9.902344 29.269531 9.847656 29.3125 9.789062 C 29.359375 9.734375 29.402344 9.671875 29.441406 9.609375 C 29.480469 9.550781 29.515625 9.484375 29.550781 9.421875 C 29.582031 9.355469 29.613281 9.289062 29.640625 9.21875 C 29.664062 9.148438 29.6875 9.082031 29.707031 9.007812 C 29.726562 8.9375 29.742188 8.867188 29.757812 8.792969 C 29.769531 8.722656 29.777344 8.648438 29.78125 8.574219 C 29.785156 8.523438 29.789062 8.472656 29.789062 8.417969 C 29.789062 8.34375 29.785156 8.273438 29.777344 8.199219 C 29.769531 8.125 29.757812 8.050781 29.746094 7.980469 C 29.730469 7.910156 29.710938 7.835938 29.691406 7.765625 C 29.667969 7.695312 29.644531 7.628906 29.613281 7.558594 C 29.585938 7.492188 29.554688 7.425781 29.519531 7.359375 C 29.484375 7.296875 29.445312 7.234375 29.40625 7.171875 C 29.363281 7.113281 29.320312 7.054688 29.273438 6.996094 C 29.226562 6.941406 29.175781 6.886719 29.125 6.835938 C 29.070312 6.785156 29.015625 6.734375 28.957031 6.691406 C 28.902344 6.644531 28.839844 6.601562 28.78125 6.5625 C 28.71875 6.523438 28.65625 6.484375 28.589844 6.453125 C 28.523438 6.417969 28.457031 6.386719 28.390625 6.363281 C 28.320312 6.335938 28.253906 6.3125 28.183594 6.292969 C 28.113281 6.273438 28.039062 6.257812 27.96875 6.242188 C 27.894531 6.230469 27.824219 6.222656 27.75 6.21875 C 27.699219 6.214844 27.648438 6.210938 27.59375 6.210938 Z M 27.59375 6.210938 "/>
<path style=" stroke:none;fill-rule:nonzero;fill:url(#radial2);" d="M 16.269531 0.03125 C 15.269531 0.03125 14.375 0.0351562 13.574219 0.046875 L 11.421875 0.105469 C 10.78125 0.132812 10.21875 0.167969 9.714844 0.214844 C 9.460938 0.238281 9.222656 0.265625 8.996094 0.292969 C 8.78125 0.320312 8.566406 0.351562 8.351562 0.386719 C 8.148438 0.421875 7.957031 0.460938 7.769531 0.5 C 7.585938 0.539062 7.410156 0.585938 7.238281 0.632812 C 7.070312 0.675781 6.90625 0.726562 6.742188 0.78125 C 6.582031 0.835938 6.425781 0.894531 6.269531 0.957031 C 5.960938 1.078125 5.65625 1.214844 5.347656 1.371094 C 5.105469 1.488281 4.886719 1.609375 4.675781 1.738281 C 4.464844 1.863281 4.265625 2 4.070312 2.144531 C 3.871094 2.296875 3.675781 2.457031 3.492188 2.628906 C 3.296875 2.804688 3.097656 3 2.894531 3.214844 C 2.636719 3.488281 2.410156 3.742188 2.210938 3.988281 C 2.109375 4.113281 2.019531 4.234375 1.929688 4.359375 C 1.84375 4.480469 1.757812 4.605469 1.679688 4.730469 C 1.601562 4.855469 1.527344 4.984375 1.457031 5.117188 C 1.382812 5.25 1.316406 5.386719 1.25 5.523438 C 1.121094 5.808594 1 6.109375 0.875 6.449219 C 0.785156 6.699219 0.703125 6.953125 0.632812 7.210938 C 0.558594 7.472656 0.496094 7.746094 0.4375 8.042969 C 0.378906 8.339844 0.328125 8.660156 0.285156 9.011719 C 0.234375 9.398438 0.199219 9.789062 0.167969 10.175781 C 0.136719 10.601562 0.109375 11.074219 0.0898438 11.597656 L 0.0351562 13.335938 L 0.0078125 15.460938 L 0 18.023438 L 0.0234375 21.753906 L 0.0976562 24.578125 L 0.15625 25.683594 L 0.226562 26.597656 C 0.25 26.84375 0.277344 27.089844 0.3125 27.335938 C 0.34375 27.554688 0.375 27.742188 0.410156 27.910156 C 0.484375 28.242188 0.570312 28.574219 0.671875 28.902344 C 0.765625 29.21875 0.875 29.527344 0.996094 29.832031 C 1.117188 30.132812 1.25 30.421875 1.390625 30.699219 C 1.535156 30.976562 1.6875 31.242188 1.855469 31.496094 C 2.019531 31.753906 2.199219 32 2.386719 32.234375 C 2.578125 32.46875 2.78125 32.695312 2.992188 32.90625 C 3.203125 33.121094 3.429688 33.328125 3.667969 33.519531 C 3.90625 33.714844 4.15625 33.902344 4.414062 34.074219 C 4.652344 34.234375 4.886719 34.378906 5.125 34.511719 C 5.363281 34.648438 5.605469 34.769531 5.851562 34.878906 C 6.097656 34.992188 6.351562 35.089844 6.617188 35.179688 C 6.882812 35.269531 7.15625 35.351562 7.449219 35.421875 C 7.738281 35.492188 8.046875 35.554688 8.375 35.609375 C 8.699219 35.664062 9.050781 35.707031 9.421875 35.75 C 9.796875 35.789062 10.191406 35.820312 10.621094 35.851562 C 11.046875 35.878906 11.503906 35.898438 11.996094 35.917969 C 12.753906 35.945312 13.902344 35.960938 15.222656 35.96875 L 19.507812 35.957031 L 23.566406 35.902344 L 25.105469 35.859375 L 26.113281 35.804688 C 26.328125 35.789062 26.539062 35.769531 26.742188 35.742188 C 26.945312 35.71875 27.148438 35.691406 27.34375 35.660156 C 27.539062 35.628906 27.730469 35.59375 27.917969 35.554688 C 28.101562 35.515625 28.289062 35.472656 28.472656 35.425781 C 28.652344 35.378906 28.832031 35.324219 29.007812 35.269531 C 29.1875 35.214844 29.363281 35.152344 29.535156 35.089844 C 29.710938 35.023438 29.886719 34.957031 30.058594 34.882812 C 30.230469 34.808594 30.40625 34.730469 30.578125 34.644531 C 30.84375 34.515625 31.058594 34.410156 31.25 34.304688 C 31.425781 34.207031 31.597656 34.097656 31.761719 33.980469 C 31.921875 33.859375 32.082031 33.726562 32.265625 33.554688 C 32.449219 33.386719 32.660156 33.179688 32.917969 32.921875 C 33.144531 32.695312 33.335938 32.496094 33.503906 32.316406 C 33.667969 32.136719 33.808594 31.976562 33.929688 31.820312 C 34.046875 31.671875 34.15625 31.519531 34.253906 31.359375 C 34.351562 31.203125 34.441406 31.039062 34.535156 30.863281 C 34.671875 30.589844 34.796875 30.339844 34.90625 30.101562 C 35.011719 29.867188 35.109375 29.632812 35.199219 29.390625 C 35.285156 29.152344 35.359375 28.910156 35.421875 28.664062 C 35.488281 28.414062 35.542969 28.144531 35.59375 27.855469 C 35.640625 27.5625 35.679688 27.242188 35.71875 26.886719 C 35.753906 26.53125 35.78125 26.140625 35.808594 25.699219 L 35.878906 24.214844 L 35.941406 22.375 L 35.984375 20.320312 L 36 18.175781 L 35.960938 13.957031 L 35.910156 12.070312 L 35.839844 10.449219 L 35.75 9.183594 C 35.71875 8.832031 35.6875 8.554688 35.648438 8.367188 C 35.609375 8.160156 35.5625 7.957031 35.515625 7.75 C 35.464844 7.550781 35.414062 7.351562 35.355469 7.15625 C 35.296875 6.964844 35.234375 6.773438 35.171875 6.585938 C 35.105469 6.398438 35.035156 6.21875 34.960938 6.039062 C 34.890625 5.859375 34.8125 5.6875 34.730469 5.515625 C 34.648438 5.34375 34.5625 5.179688 34.472656 5.015625 C 34.382812 4.855469 34.289062 4.695312 34.1875 4.539062 C 34.089844 4.386719 33.988281 4.234375 33.882812 4.089844 C 33.777344 3.941406 33.667969 3.800781 33.550781 3.660156 C 33.4375 3.519531 33.320312 3.386719 33.195312 3.253906 C 33.074219 3.125 32.945312 2.996094 32.816406 2.875 C 32.6875 2.75 32.550781 2.632812 32.414062 2.515625 C 32.273438 2.402344 32.128906 2.289062 31.984375 2.183594 C 31.835938 2.078125 31.683594 1.972656 31.53125 1.875 C 31.375 1.773438 31.214844 1.679688 31.054688 1.589844 C 30.890625 1.496094 30.722656 1.410156 30.550781 1.328125 C 30.269531 1.191406 30.007812 1.070312 29.753906 0.960938 C 29.503906 0.855469 29.246094 0.761719 28.984375 0.675781 C 28.722656 0.59375 28.453125 0.523438 28.152344 0.464844 C 27.851562 0.402344 27.523438 0.351562 27.15625 0.308594 C 26.785156 0.265625 26.371094 0.230469 25.898438 0.199219 C 25.425781 0.171875 24.894531 0.148438 24.289062 0.128906 L 22.226562 0.0859375 L 19.613281 0.0546875 Z M 18.007812 3.203125 L 22.828125 3.230469 L 24.644531 3.265625 C 25.148438 3.28125 25.53125 3.296875 25.753906 3.316406 C 26.046875 3.339844 26.324219 3.371094 26.589844 3.410156 C 26.84375 3.445312 27.097656 3.488281 27.351562 3.539062 C 27.59375 3.589844 27.824219 3.648438 28.042969 3.714844 C 28.265625 3.777344 28.476562 3.851562 28.679688 3.933594 C 28.882812 4.011719 29.074219 4.101562 29.261719 4.199219 C 29.445312 4.292969 29.628906 4.402344 29.800781 4.515625 C 29.972656 4.632812 30.140625 4.753906 30.300781 4.886719 C 30.464844 5.019531 30.621094 5.164062 30.773438 5.316406 C 30.9375 5.476562 31.085938 5.640625 31.222656 5.8125 C 31.359375 5.980469 31.488281 6.15625 31.601562 6.339844 C 31.71875 6.523438 31.824219 6.71875 31.917969 6.917969 C 32.015625 7.121094 32.101562 7.335938 32.175781 7.5625 C 32.253906 7.792969 32.324219 8.035156 32.382812 8.292969 C 32.449219 8.566406 32.5 8.84375 32.542969 9.121094 C 32.589844 9.417969 32.628906 9.730469 32.664062 10.070312 C 32.695312 10.40625 32.722656 10.765625 32.746094 11.152344 C 32.765625 11.457031 32.78125 11.867188 32.792969 12.347656 L 32.828125 13.984375 L 32.855469 18.003906 L 32.824219 22.015625 L 32.789062 23.648438 L 32.742188 24.835938 C 32.707031 25.394531 32.671875 25.863281 32.628906 26.269531 C 32.609375 26.472656 32.585938 26.660156 32.558594 26.839844 C 32.535156 27.003906 32.507812 27.171875 32.472656 27.335938 C 32.445312 27.488281 32.410156 27.636719 32.371094 27.789062 C 32.332031 27.929688 32.289062 28.070312 32.242188 28.210938 C 32.195312 28.347656 32.140625 28.488281 32.085938 28.625 C 32.027344 28.769531 31.964844 28.910156 31.898438 29.050781 C 31.839844 29.179688 31.777344 29.300781 31.714844 29.421875 C 31.648438 29.539062 31.582031 29.65625 31.507812 29.769531 C 31.4375 29.882812 31.363281 29.992188 31.285156 30.097656 C 31.207031 30.203125 31.125 30.304688 31.039062 30.40625 C 30.953125 30.503906 30.863281 30.601562 30.773438 30.695312 C 30.679688 30.785156 30.585938 30.875 30.484375 30.964844 C 30.386719 31.050781 30.285156 31.132812 30.175781 31.210938 C 30.070312 31.292969 29.960938 31.371094 29.847656 31.441406 C 29.734375 31.515625 29.617188 31.585938 29.496094 31.65625 C 29.371094 31.722656 29.246094 31.785156 29.121094 31.847656 C 28.988281 31.910156 28.855469 31.96875 28.722656 32.023438 C 28.582031 32.078125 28.441406 32.128906 28.300781 32.179688 C 28.011719 32.277344 27.707031 32.363281 27.386719 32.4375 C 27.054688 32.515625 26.71875 32.578125 26.378906 32.625 C 26.25 32.644531 25.949219 32.664062 25.519531 32.679688 L 23.886719 32.726562 L 19.25 32.785156 L 14.398438 32.792969 L 12.492188 32.773438 L 11.257812 32.734375 L 10.34375 32.671875 C 10.058594 32.644531 9.796875 32.621094 9.550781 32.589844 C 9.304688 32.558594 9.074219 32.527344 8.855469 32.488281 C 8.652344 32.453125 8.449219 32.410156 8.246094 32.359375 C 8.0625 32.316406 7.878906 32.265625 7.699219 32.203125 C 7.527344 32.148438 7.359375 32.082031 7.199219 32.015625 C 7.039062 31.945312 6.878906 31.867188 6.726562 31.785156 C 6.570312 31.699219 6.417969 31.609375 6.261719 31.511719 C 6.144531 31.4375 6.03125 31.359375 5.921875 31.28125 C 5.8125 31.203125 5.707031 31.121094 5.605469 31.039062 C 5.503906 30.953125 5.40625 30.867188 5.3125 30.78125 C 5.21875 30.691406 5.128906 30.601562 5.042969 30.503906 C 4.957031 30.410156 4.871094 30.3125 4.792969 30.214844 C 4.714844 30.113281 4.636719 30.007812 4.566406 29.902344 C 4.492188 29.792969 4.421875 29.683594 4.359375 29.570312 C 4.292969 29.457031 4.230469 29.335938 4.171875 29.214844 C 4.109375 29.09375 4.054688 28.964844 4 28.839844 C 3.949219 28.707031 3.898438 28.574219 3.851562 28.433594 C 3.757812 28.15625 3.671875 27.863281 3.601562 27.546875 C 3.527344 27.234375 3.46875 26.898438 3.414062 26.542969 C 3.363281 26.1875 3.320312 25.808594 3.289062 25.40625 C 3.261719 25.109375 3.242188 24.648438 3.230469 24.070312 L 3.199219 22 L 3.207031 16.730469 L 3.300781 11.695312 L 3.367188 9.921875 L 3.40625 9.335938 C 3.421875 9.179688 3.4375 9.0625 3.449219 8.992188 C 3.496094 8.761719 3.546875 8.550781 3.59375 8.351562 C 3.640625 8.160156 3.691406 7.976562 3.75 7.789062 C 3.804688 7.613281 3.859375 7.449219 3.921875 7.296875 C 3.976562 7.144531 4.042969 6.996094 4.113281 6.851562 C 4.183594 6.710938 4.261719 6.578125 4.339844 6.445312 C 4.421875 6.3125 4.511719 6.1875 4.605469 6.0625 C 4.703125 5.933594 4.804688 5.808594 4.917969 5.683594 C 5.03125 5.554688 5.152344 5.429688 5.285156 5.296875 C 5.4375 5.140625 5.597656 4.992188 5.761719 4.851562 C 5.921875 4.71875 6.082031 4.59375 6.253906 4.476562 C 6.417969 4.363281 6.589844 4.261719 6.765625 4.164062 C 6.945312 4.070312 7.128906 3.984375 7.324219 3.910156 C 7.519531 3.832031 7.722656 3.765625 7.9375 3.703125 C 8.167969 3.636719 8.394531 3.582031 8.628906 3.539062 C 8.871094 3.492188 9.128906 3.449219 9.40625 3.414062 C 9.683594 3.378906 9.976562 3.34375 10.289062 3.320312 C 10.507812 3.300781 10.886719 3.28125 11.382812 3.269531 L 13.195312 3.234375 Z M 18.007812 3.203125 "/>
</g>
</svg>
