<?xml version="1.0" standalone="no"?>
<!DOCTYPE svg PUBLIC "-//W3C//DTD SVG 20010904//EN"
 "http://www.w3.org/TR/2001/REC-SVG-20010904/DTD/svg10.dtd">
<svg version="1.0" xmlns="http://www.w3.org/2000/svg"
 width="256.000000pt" height="256.000000pt" viewBox="0 0 256.000000 256.000000"
 preserveAspectRatio="xMidYMid meet">
<metadata>
Created by potrace 1.10, written by Peter Selinger 2001-2011
</metadata>
<g transform="translate(0.000000,256.000000) scale(0.100000,-0.100000)"
fill="#444444" stroke="none">
<path d="M651 2542 c-19 -9 -44 -30 -55 -45 -20 -26 -21 -45 -24 -252 -5 -284
-17 -265 173 -265 190 0 177 -19 173 265 -3 208 -4 226 -24 252 -31 42 -80 63
-149 63 -37 0 -73 -7 -94 -18z"/>
<path d="M1721 2543 c-19 -10 -44 -31 -55 -46 -20 -26 -21 -44 -24 -252 -4
-284 -17 -265 173 -265 189 0 177 -18 173 258 -3 236 -8 256 -61 296 -40 29
-158 34 -206 9z"/>
<path d="M222 2310 c-70 -32 -110 -69 -142 -133 l-30 -60 0 -927 c0 -800 2
-933 15 -978 20 -68 96 -151 167 -183 l53 -24 990 0 c950 0 992 1 1039 19 63
24 130 86 164 151 l27 50 0 955 0 955 -22 40 c-31 57 -80 104 -138 131 -42 20
-66 24 -152 24 l-103 0 0 -170 c0 -184 -4 -203 -55 -250 -26 -24 -30 -25 -205
-28 -202 -4 -233 4 -270 63 -18 29 -20 49 -20 209 l0 176 -259 0 -260 0 -3
-185 -3 -185 -38 -37 -37 -38 -195 0 -195 0 -37 38 -38 37 -3 185 -3 185 -102
0 c-79 0 -112 -5 -145 -20z m2048 -1339 l0 -690 -26 -20 c-27 -21 -31 -21
-961 -21 -940 0 -963 1 -985 34 -4 6 -8 320 -8 699 l0 687 990 0 990 0 0 -689z"/>
<path d="M560 1260 l0 -150 150 0 150 0 0 150 0 150 -150 0 -150 0 0 -150z"/>
<path d="M1130 1260 l0 -150 150 0 150 0 0 150 0 150 -150 0 -150 0 0 -150z"/>
<path d="M1700 1260 l0 -150 150 0 150 0 0 150 0 150 -150 0 -150 0 0 -150z"/>
<path d="M560 710 l0 -150 150 0 150 0 0 150 0 150 -150 0 -150 0 0 -150z"/>
<path d="M1130 710 l0 -150 150 0 150 0 0 150 0 150 -150 0 -150 0 0 -150z"/>
<path d="M1700 715 l0 -145 150 0 150 0 0 145 0 145 -150 0 -150 0 0 -145z"/>
</g>
</svg>
