<?xml version="1.0" standalone="no"?>
<!DOCTYPE svg PUBLIC "-//W3C//DTD SVG 20010904//EN"
 "http://www.w3.org/TR/2001/REC-SVG-20010904/DTD/svg10.dtd">
<svg version="1.0" xmlns="http://www.w3.org/2000/svg"
 width="256.000000pt" height="256.000000pt" viewBox="0 0 256.000000 256.000000"
 preserveAspectRatio="xMidYMid meet">
<metadata>
Created by potrace 1.10, written by Peter Selinger 2001-2011
</metadata>
<g transform="translate(0.000000,256.000000) scale(0.100000,-0.100000)"
fill="#e69138" stroke="none">
<path d="M1178 2549 c-563 -37 -1044 -471 -1153 -1040 -23 -120 -21 -337 4
-465 36 -185 111 -361 219 -514 141 -197 384 -375 627 -458 197 -68 452 -83
660 -41 508 105 902 512 1000 1034 26 134 17 385 -18 517 -100 382 -346 683
-690 847 -208 99 -406 136 -649 120z m357 -283 c360 -93 636 -370 732 -735 22
-83 26 -117 26 -251 0 -135 -3 -167 -26 -251 -116 -437 -485 -740 -933 -766
-256 -15 -501 66 -706 234 -337 275 -459 757 -295 1163 127 312 410 551 727
613 47 9 94 19 105 21 11 3 76 3 145 1 92 -2 151 -10 225 -29z"/>
<path d="M1243 1940 c-38 -16 -81 -86 -97 -160 -31 -134 -15 -355 40 -559 30
-113 73 -206 94 -206 37 0 114 242 141 444 15 107 7 268 -16 348 -29 104 -98
160 -162 133z"/>
<path d="M1189 852 c-42 -43 -54 -76 -45 -127 15 -79 98 -130 175 -106 69 20
114 99 96 168 -3 15 -23 44 -44 65 -35 34 -44 38 -91 38 -47 0 -56 -4 -91 -38z"/>
</g>
</svg>
