<svg width="12" height="12" viewBox="0 0 12 12" fill="none" xmlns="http://www.w3.org/2000/svg">
<path d="M6.258 11.476C5.49267 11.476 4.774 11.3313 4.102 11.042C3.43 10.762 2.83733 10.37 2.324 9.866C1.82 9.35267 1.42333 8.76 1.134 8.088C0.854 7.416 0.714 6.69733 0.714 5.932C0.714 5.15733 0.854 4.43867 1.134 3.776C1.42333 3.104 1.82 2.516 2.324 2.012C2.83733 1.49867 3.43 1.102 4.102 0.821999C4.774 0.532666 5.49267 0.388 6.258 0.388C7.03267 0.388 7.75133 0.532666 8.414 0.821999C9.086 1.102 9.674 1.49867 10.178 2.012C10.6913 2.516 11.088 3.104 11.368 3.776C11.6573 4.43867 11.802 5.15733 11.802 5.932C11.802 6.69733 11.6573 7.416 11.368 8.088C11.088 8.76 10.6913 9.35267 10.178 9.866C9.674 10.37 9.086 10.762 8.414 11.042C7.75133 11.3313 7.03267 11.476 6.258 11.476ZM6.258 10.888C6.94867 10.888 7.59267 10.762 8.19 10.51C8.78733 10.2487 9.31 9.894 9.758 9.446C10.2153 8.98867 10.57 8.46133 10.822 7.864C11.0833 7.26667 11.214 6.62267 11.214 5.932C11.214 5.24133 11.0833 4.59733 10.822 4C10.57 3.40267 10.2153 2.88 9.758 2.432C9.31 1.97467 8.78733 1.62 8.19 1.368C7.59267 1.10667 6.94867 0.976 6.258 0.976C5.56733 0.976 4.92333 1.10667 4.326 1.368C3.72867 1.62 3.20133 1.97467 2.744 2.432C2.296 2.88 1.94133 3.40267 1.68 4C1.428 4.59733 1.302 5.24133 1.302 5.932C1.302 6.62267 1.428 7.26667 1.68 7.864C1.94133 8.46133 2.296 8.98867 2.744 9.446C3.20133 9.894 3.72867 10.2487 4.326 10.51C4.92333 10.762 5.56733 10.888 6.258 10.888Z" fill="black"/>
</svg>
