<svg width="24" height="24" viewBox="0 0 24 24" fill="none" xmlns="http://www.w3.org/2000/svg">
<path d="M14.9016 23.6458C14.9599 23.6313 15.0172 23.6145 15.075 23.5993C15.2019 23.5658 15.3286 23.5322 15.4546 23.4945C15.5282 23.4725 15.601 23.4476 15.6742 23.4242C15.7848 23.3887 15.8957 23.3537 16.0056 23.3149C16.0812 23.2882 16.1557 23.2585 16.2306 23.2303C16.3382 23.19 16.4456 23.1502 16.552 23.1066C16.6194 23.079 16.6855 23.0488 16.7522 23.02C16.8666 22.9708 16.9809 22.9217 17.0941 22.8688C17.1435 22.8455 17.192 22.8203 17.2413 22.7963C17.3708 22.7335 17.4999 22.6699 17.6275 22.6021C17.6524 22.589 17.6765 22.5745 17.7013 22.5611C18.6964 22.0235 19.6324 21.3377 20.474 20.4984C21.3178 19.6572 22.0078 18.7203 22.5487 17.7241C22.5618 17.7003 22.5756 17.6771 22.5885 17.6532C22.6566 17.526 22.7203 17.3969 22.7833 17.2678C22.8075 17.2184 22.8331 17.1696 22.8567 17.12C22.9095 17.0077 22.9584 16.8942 23.0076 16.7808C23.0369 16.7133 23.0679 16.6465 23.0958 16.5785C23.1391 16.4738 23.1782 16.3679 23.2184 16.2622C23.2475 16.1853 23.2783 16.109 23.3057 16.0315C23.3447 15.9224 23.3795 15.8121 23.415 15.7021C23.4388 15.6285 23.4643 15.5554 23.4866 15.4813C23.5256 15.352 23.5604 15.2216 23.595 15.0914C23.6093 15.0368 23.6256 14.983 23.6394 14.9282C23.6826 14.7553 23.7212 14.5817 23.7567 14.4074C23.7591 14.3957 23.7621 14.3841 23.7644 14.3724C24.0763 12.8189 24.0785 11.2159 23.7712 9.66132C23.7692 9.65148 23.7666 9.64173 23.7648 9.63183C23.7295 9.45567 23.6908 9.28007 23.6476 9.10535C23.6342 9.05135 23.6185 8.99824 23.6046 8.94456C23.5702 8.81345 23.5357 8.68252 23.4969 8.55248C23.4745 8.47813 23.4493 8.40472 23.4257 8.33075C23.3904 8.22068 23.3559 8.11047 23.3175 8.00129C23.2904 7.92437 23.2601 7.84875 23.2315 7.77258C23.1915 7.66598 23.1523 7.55929 23.1091 7.45376C23.0812 7.38579 23.0507 7.31899 23.0217 7.25177C22.9728 7.13804 22.9241 7.02413 22.8715 6.91172C22.8483 6.86231 22.823 6.81375 22.7991 6.76466C22.7361 6.63463 22.6725 6.50501 22.6044 6.3768C22.5927 6.35467 22.5797 6.33288 22.5678 6.3107C22.0292 5.31137 21.3412 4.37119 20.4987 3.52608C19.6551 2.68022 18.7159 1.98873 17.7169 1.44706C17.6942 1.43459 17.6718 1.42123 17.6489 1.40895C17.5231 1.34173 17.3955 1.27891 17.2678 1.21666C17.2164 1.19139 17.1658 1.16481 17.1142 1.1403C17.0058 1.08939 16.8961 1.04232 16.7864 0.994695C16.715 0.963568 16.6441 0.930754 16.572 0.90108C16.4717 0.859922 16.3702 0.822561 16.2689 0.784074C16.1877 0.753135 16.1067 0.720555 16.0247 0.691397C15.9194 0.654036 15.813 0.620706 15.707 0.586485C15.6291 0.561218 15.5522 0.534451 15.4738 0.510872C15.344 0.471682 15.2131 0.437087 15.0822 0.402444C15.0281 0.388146 14.9748 0.37202 14.9204 0.358473C13.1953 -0.0724255 11.3933 -0.114709 9.65254 0.230825C9.63572 0.234107 9.61889 0.238513 9.60201 0.241795C9.43317 0.276203 9.2647 0.313236 9.09736 0.35477C9.04495 0.367614 8.99334 0.38299 8.94117 0.396537C8.80837 0.431508 8.676 0.466666 8.54433 0.506043C8.47566 0.526576 8.40811 0.549827 8.34 0.571578C8.22422 0.608565 8.10835 0.645176 7.99355 0.685678C7.92249 0.710945 7.85255 0.73879 7.78186 0.765323C7.66997 0.807232 7.55789 0.848671 7.44713 0.894049C7.38394 0.920019 7.32188 0.948427 7.25925 0.975334C7.14094 1.02624 7.02249 1.07696 6.90544 1.13191C6.85969 1.15333 6.8146 1.17695 6.76922 1.19913C6.63596 1.26358 6.50316 1.32898 6.37186 1.39873C6.35082 1.40989 6.33033 1.42217 6.30924 1.43352C5.3109 1.97195 4.37152 2.65936 3.52717 3.50138C-1.16599 8.1814 -1.1772 15.7802 3.50251 20.4739C4.34504 21.3186 5.28291 22.0094 6.28041 22.5507C6.30474 22.5639 6.32855 22.5781 6.35288 22.5911C6.47761 22.6578 6.60413 22.72 6.73083 22.7819C6.78324 22.8076 6.83466 22.8349 6.88739 22.8596C6.99563 22.9107 7.10532 22.9576 7.21482 23.0052C7.28621 23.0363 7.35689 23.0689 7.42903 23.0986C7.53014 23.1402 7.63228 23.1779 7.73428 23.2167C7.81486 23.2473 7.89488 23.2793 7.9762 23.3083C8.08223 23.346 8.18897 23.3793 8.29575 23.4139C8.373 23.4388 8.44959 23.4656 8.52722 23.489C8.6587 23.5286 8.79126 23.5637 8.92369 23.5987C8.9759 23.6125 9.02751 23.628 9.07987 23.6412C10.8046 24.0723 12.6061 24.1147 14.3465 23.7695C14.37 23.7648 14.3931 23.7589 14.4166 23.7542C14.5788 23.7211 14.7407 23.6857 14.9016 23.6458ZM18.3558 18.3738C14.8412 21.8783 9.13111 21.8698 5.62707 18.3555C2.12298 14.8409 2.13123 9.13034 5.64554 5.6261C9.15989 2.12182 14.8701 2.13007 18.3742 5.64457C21.8783 9.15889 21.8701 14.8693 18.3558 18.3738Z" fill="#4B4B4B"/>
<path d="M17.0717 9.76803C17.3977 9.44317 17.3984 8.91542 17.0735 8.58943L15.4259 6.93691C15.1009 6.61111 14.5731 6.61036 14.2474 6.93527L12.2648 8.91209C12.1212 9.05525 11.8887 9.05493 11.7455 8.91134L9.76875 6.92866C9.44372 6.60286 8.916 6.60215 8.59022 6.92702L6.93779 8.57476C6.61182 8.89962 6.61107 9.42741 6.93596 9.75335L8.91286 11.736C9.05602 11.8796 9.05569 12.1122 8.91211 12.2553L6.5994 14.5613C6.45587 14.7045 6.45549 14.937 6.59865 15.0806L8.90461 17.3934C9.04782 17.537 9.28036 17.5374 9.42394 17.3942L11.7365 15.0881C11.88 14.9448 12.1126 14.9452 12.2557 15.0888L14.2326 17.0714C14.5575 17.3972 15.0853 17.3982 15.411 17.0731L17.0636 15.4253C17.3894 15.1005 17.3901 14.5727 17.0652 14.2468L15.0885 12.2643C14.9453 12.1205 14.9457 11.8879 15.0892 11.7449L17.0717 9.76803Z" fill="#4B4B4B"/>
</svg>
