<svg width="24" height="12" viewBox="0 0 24 12" fill="none" xmlns="http://www.w3.org/2000/svg">
<path d="M6.07165 11.3412C4.55757 11.3412 3.25475 10.9755 2.1632 10.2442C1.07165 9.5129 0.525879 8.64002 0.525879 7.62561C0.525879 6.70555 0.961618 5.89461 1.8331 5.19277C2.70458 4.49093 3.82694 4.06924 5.20018 3.92769C5.55229 2.78352 6.37975 1.84872 7.68257 1.1233C8.98539 0.39787 10.4907 0.0351562 12.1984 0.0351562C14.1879 0.0351562 15.856 0.515826 17.2028 1.47716C18.5496 2.4385 19.2231 3.59152 19.2231 4.93622V5.36086C20.4907 5.33726 21.5646 5.61151 22.4449 6.1836C23.3252 6.75568 23.7653 7.47816 23.7653 8.35103C23.7653 9.16493 23.3252 9.86676 22.4449 10.4565C21.5646 11.0463 20.5171 11.3412 19.3023 11.3412H12.9379C12.5153 11.3412 12.1456 11.235 11.8287 11.0227C11.5118 10.8104 11.3533 10.5627 11.3533 10.2796V5.71472L9.16144 7.18327L8.02588 6.42246L12.1456 3.66229L16.2653 6.42246L15.1298 7.18327L12.9379 5.71472V10.2796H19.3023C20.0945 10.2796 20.7724 10.0909 21.3357 9.71342C21.8991 9.33596 22.1808 8.88183 22.1808 8.35103C22.1808 7.82023 21.8991 7.3661 21.3357 6.98864C20.7724 6.61119 20.0945 6.42246 19.3023 6.42246H17.6386V4.93622C17.6386 3.88641 17.106 2.98405 16.0408 2.22913C14.9757 1.47422 13.6597 1.09676 12.0928 1.09676C10.5259 1.09676 9.20546 1.47422 8.13151 2.22913C7.05757 2.98405 6.5206 3.88641 6.5206 4.93622H6.01884C4.92729 4.93622 4.00299 5.19277 3.24595 5.70588C2.48891 6.21898 2.11039 6.853 2.11039 7.60791C2.11039 8.33924 2.49771 8.96735 3.27236 9.49225C4.04701 10.0172 4.9801 10.2796 6.07165 10.2796H9.76884V11.3412H6.07165Z" fill="#CC0099"/>
</svg>
