<?xml version="1.0" standalone="no"?>
<!DOCTYPE svg PUBLIC "-//W3C//DTD SVG 20010904//EN"
 "http://www.w3.org/TR/2001/REC-SVG-20010904/DTD/svg10.dtd">
<svg version="1.0" xmlns="http://www.w3.org/2000/svg"
 width="100.000000pt" height="101.000000pt" viewBox="0 0 100.000000 101.000000"
 preserveAspectRatio="xMidYMid meet">

<g transform="translate(0.000000,101.000000) scale(0.100000,-0.100000)"
fill="#000000" stroke="none">
<path d="M359 887 c-69 -29 -105 -54 -152 -106 -143 -158 -134 -398 20 -547
119 -117 303 -143 454 -66 l56 29 67 -17 c82 -22 88 -15 57 68 l-22 58 21 47
c88 198 -1 433 -198 525 -47 22 -74 27 -152 30 -81 2 -103 -1 -151 -21z m266
-45 c142 -55 237 -207 221 -355 -3 -33 -17 -85 -31 -115 -21 -46 -24 -60 -15
-91 14 -50 15 -49 -34 -44 -36 4 -56 -1 -112 -28 -62 -31 -77 -34 -154 -34
-76 0 -92 3 -152 33 -257 126 -259 488 -4 619 87 44 191 50 281 15z"/>
</g>
</svg>
