<svg width="20" height="20" viewBox="0 0 20 20" fill="none" xmlns="http://www.w3.org/2000/svg">
<path d="M12.418 19.7048C12.4665 19.6927 12.5143 19.6787 12.5625 19.6661C12.6683 19.6381 12.7739 19.6102 12.8789 19.5788C12.9402 19.5604 13.0008 19.5397 13.0618 19.5202C13.154 19.4905 13.2464 19.4614 13.338 19.4291C13.401 19.4068 13.4631 19.3821 13.5255 19.3586C13.6151 19.325 13.7047 19.2919 13.7933 19.2555C13.8495 19.2325 13.9046 19.2073 13.9601 19.1833C14.0555 19.1423 14.1507 19.1014 14.2451 19.0573C14.2863 19.0379 14.3267 19.0169 14.3678 18.9969C14.4756 18.9445 14.5832 18.8916 14.6896 18.8351C14.7103 18.8241 14.7305 18.8121 14.7511 18.8009C15.5803 18.3529 16.3604 17.7814 17.0617 17.082C17.7649 16.381 18.3399 15.6003 18.7906 14.7701C18.8015 14.7503 18.813 14.7309 18.8237 14.711C18.8805 14.605 18.9336 14.4974 18.9861 14.3898C19.0062 14.3486 19.0276 14.308 19.0473 14.2666C19.0912 14.1731 19.132 14.0785 19.173 13.984C19.1974 13.9277 19.2232 13.872 19.2465 13.8154C19.2825 13.7281 19.3152 13.6399 19.3486 13.5519C19.3729 13.4878 19.3986 13.4241 19.4214 13.3596C19.4539 13.2687 19.4829 13.1768 19.5125 13.0851C19.5324 13.0238 19.5536 12.9628 19.5722 12.9011C19.6047 12.7933 19.6337 12.6846 19.6625 12.5762C19.6744 12.5306 19.688 12.4858 19.6995 12.4402C19.7355 12.2961 19.7677 12.1514 19.7973 12.0062C19.7993 11.9964 19.8017 11.9868 19.8037 11.977C20.0636 10.6825 20.0654 9.34656 19.8093 8.0511C19.8077 8.0429 19.8055 8.03477 19.804 8.02653C19.7745 7.87972 19.7424 7.73339 19.7063 7.5878C19.6952 7.54279 19.682 7.49853 19.6705 7.4538C19.6418 7.34454 19.6131 7.23543 19.5808 7.12707C19.5621 7.06511 19.5411 7.00394 19.5214 6.94229C19.492 6.85057 19.4633 6.75873 19.4312 6.66775C19.4086 6.60364 19.3834 6.54063 19.3596 6.47715C19.3262 6.38832 19.2936 6.2994 19.2575 6.21147C19.2343 6.15483 19.2089 6.09916 19.1847 6.04314C19.144 5.94837 19.1034 5.85344 19.0596 5.75977C19.0402 5.71859 19.0192 5.67812 18.9992 5.63722C18.9467 5.52885 18.8938 5.42084 18.837 5.314C18.8272 5.29556 18.8164 5.2774 18.8065 5.25892C18.3577 4.42614 17.7843 3.64266 17.0823 2.9384C16.3793 2.23352 15.5966 1.65728 14.7641 1.20589C14.7451 1.19549 14.7265 1.18436 14.7074 1.17413C14.6026 1.11811 14.4963 1.06576 14.3899 1.01388C14.347 0.992828 14.3049 0.970678 14.2618 0.950247C14.1715 0.907823 14.0801 0.868602 13.9887 0.828912C13.9292 0.802973 13.8701 0.775628 13.81 0.7509C13.7264 0.716602 13.6418 0.685467 13.5574 0.653395C13.4897 0.627612 13.4222 0.600462 13.3539 0.576164C13.2662 0.54503 13.1775 0.517255 13.0891 0.488738C13.0243 0.467682 12.9602 0.445376 12.8949 0.425726C12.7867 0.393068 12.6776 0.364239 12.5685 0.33537C12.5234 0.323455 12.479 0.310017 12.4337 0.298727C10.9961 -0.0603546 9.49441 -0.0955909 8.04379 0.192354C8.02976 0.195089 8.01574 0.198761 8.00168 0.201496C7.86097 0.230169 7.72058 0.26103 7.58113 0.295641C7.53746 0.306345 7.49445 0.319158 7.45097 0.330448C7.34031 0.35959 7.23 0.388889 7.12027 0.421703C7.06305 0.438813 7.00676 0.458189 6.95 0.476315C6.85352 0.507137 6.75695 0.537647 6.66129 0.571398C6.60207 0.592454 6.54379 0.615659 6.48488 0.637769C6.39164 0.672693 6.29824 0.707226 6.20594 0.745041C6.15328 0.766682 6.10156 0.790356 6.04938 0.812779C5.95078 0.855203 5.85207 0.897471 5.75453 0.943255C5.71641 0.961107 5.67883 0.980796 5.64102 0.999273C5.52996 1.05299 5.4193 1.10748 5.30989 1.16561C5.29235 1.17491 5.27528 1.18514 5.2577 1.1946C4.42575 1.64329 3.64294 2.21614 2.93931 2.91781C-0.971662 6.81783 -0.980998 13.1502 2.91876 17.0616C3.62087 17.7655 4.40243 18.3412 5.23368 18.7922C5.25395 18.8032 5.27379 18.8151 5.29407 18.8259C5.39801 18.8815 5.50344 18.9334 5.60903 18.9849C5.6527 19.0063 5.69555 19.0291 5.73949 19.0497C5.82969 19.0922 5.9211 19.1313 6.01235 19.171C6.07184 19.1969 6.13074 19.2241 6.19086 19.2488C6.27512 19.2835 6.36024 19.3149 6.44524 19.3473C6.51238 19.3727 6.57906 19.3995 6.64684 19.4236C6.7352 19.455 6.82414 19.4828 6.91312 19.5116C6.9775 19.5323 7.04133 19.5547 7.10601 19.5742C7.21558 19.6072 7.32605 19.6365 7.4364 19.6656C7.47992 19.677 7.52293 19.69 7.56656 19.701C9.00386 20.0602 10.5051 20.0956 11.9554 19.8079C11.975 19.804 11.9943 19.7991 12.0138 19.7951C12.149 19.7676 12.2839 19.7381 12.418 19.7048ZM15.2965 15.3115C12.3677 18.2319 7.60926 18.2249 4.68922 15.2963C1.76915 12.3674 1.77603 7.60862 4.70461 4.68842C7.63324 1.76818 12.3918 1.77506 15.3119 4.70381C18.2319 7.63241 18.2251 12.3911 15.2965 15.3115Z" fill="#FF0101"/>
<path d="M14.2264 8.14047C14.4981 7.86975 14.4987 7.42996 14.2279 7.15831L12.8549 5.7812C12.584 5.5097 12.1443 5.50908 11.8728 5.77984L10.2207 7.42719C10.101 7.54649 9.90722 7.54622 9.78788 7.42656L8.14062 5.77433C7.86976 5.50283 7.43 5.50224 7.15851 5.77296L5.78149 7.14608C5.50985 7.4168 5.50922 7.85663 5.77996 8.12824L7.42738 9.78048C7.54668 9.90009 7.5464 10.0939 7.42676 10.2132L5.49949 12.1348C5.37989 12.2542 5.37957 12.448 5.49887 12.5676L7.42051 14.495C7.53984 14.6146 7.73363 14.6149 7.85328 14.4956L9.78038 12.5738C9.89999 12.4545 10.0938 12.4548 10.2131 12.5744L11.8605 14.2267C12.1312 14.4982 12.571 14.4989 12.8425 14.228L14.2197 12.8549C14.4912 12.5842 14.4917 12.1444 14.221 11.8727L12.5738 10.2207C12.4544 10.1008 12.4548 9.90705 12.5744 9.78786L14.2264 8.14047Z" fill="#FF0101"/>
</svg>