<svg width="22" height="27" viewBox="0 0 22 27" fill="none" xmlns="http://www.w3.org/2000/svg">
<path d="M21.1491 4.52092C20.8061 3.76555 20.0669 3.27301 19.2688 3.27301H15.227L14.7412 1.05838C14.6047 0.43548 14.0874 0 13.4829 0H7.87576C7.27168 0 6.75421 0.43527 6.6174 1.05817L6.1314 3.27301H2.09045C1.29298 3.27301 0.556617 3.76307 0.21172 4.52234C0.0712207 4.81939 0 5.14366 0 5.48643V7.42273C0 8.09905 0.519463 8.64902 1.15816 8.64902H1.44688C1.33442 8.86322 1.27784 9.10876 1.28795 9.35598L1.40315 12.216L1.85159 23.4099C1.90528 24.7505 2.79419 25.9012 4.01301 26.2079C6.10107 26.7337 8.34368 27 10.6781 27C12.9957 27 15.2228 26.7375 17.297 26.2201C18.5447 25.9091 19.4536 24.753 19.5073 23.4093L19.9555 12.2158L20.0707 9.35598C20.0806 9.1086 20.0242 8.86328 19.9118 8.64902H20.1985C20.8384 8.64902 21.3592 8.099 21.3592 7.42273V5.48643C21.3592 5.14529 21.2886 4.82024 21.1491 4.52092ZM4.37021 7.8976H16.9883L16.9752 8.71641H4.38321L4.37021 7.8976ZM18.275 9.84382L18.1828 12.1363L17.7344 23.3296C17.7142 23.8358 17.3669 24.2725 16.8902 24.3913C14.9486 24.8756 12.8586 25.1212 10.6781 25.1212C8.48139 25.1212 6.37679 24.8717 4.4233 24.3801C3.97312 24.2665 3.64451 23.8351 3.62449 23.3303L3.17604 12.136L3.08381 9.84387H18.275V9.84382ZM7.73566 4.02469L8.11368 2.30138C8.17494 2.02205 8.40997 1.8245 8.68056 1.8245H12.6778C12.9486 1.8245 13.1834 2.02205 13.2449 2.30138L13.6227 4.02469H7.73566ZM1.77449 5.48643C1.77449 5.43844 1.78266 5.39684 1.7988 5.36303L1.80487 5.35027L1.8105 5.33772C1.84905 5.25203 1.94532 5.15194 2.0905 5.15194H19.2688C19.4148 5.15194 19.5114 5.25039 19.5576 5.35175C19.5757 5.39046 19.5848 5.43581 19.5848 5.48648V6.77025H1.77449V5.48643Z" fill="#4B4B4B"/>
<path d="M5.74234 20.7989H6.34329C6.54017 20.7989 6.69989 20.6265 6.69989 20.4137V13.4738C6.69989 13.2608 6.54017 13.0884 6.34329 13.0884H5.74234C5.54522 13.0884 5.38574 13.2608 5.38574 13.4738V20.4138C5.38574 20.6265 5.54527 20.7989 5.74234 20.7989Z" fill="#4B4B4B"/>
<path d="M8.83316 20.7989H9.43411C9.63118 20.7989 9.79071 20.6265 9.79071 20.4137V13.4738C9.79071 13.2608 9.63118 13.0884 9.43411 13.0884H8.83316C8.63629 13.0884 8.47656 13.2608 8.47656 13.4738V20.4138C8.47656 20.6265 8.63629 20.7989 8.83316 20.7989Z" fill="#4B4B4B"/>
<path d="M11.9238 20.7989H12.525C12.7219 20.7989 12.8816 20.6265 12.8816 20.4137V13.4738C12.8816 13.2608 12.7219 13.0884 12.525 13.0884H11.9238C11.7271 13.0884 11.5674 13.2608 11.5674 13.4738V20.4138C11.5674 20.6265 11.7271 20.7989 11.9238 20.7989Z" fill="#4B4B4B"/>
<path d="M15.0146 20.7989H15.6157C15.8126 20.7989 15.9723 20.6265 15.9723 20.4137V13.4738C15.9723 13.2608 15.8126 13.0884 15.6157 13.0884H15.0146C14.8177 13.0884 14.6582 13.2608 14.6582 13.4738V20.4138C14.6582 20.6265 14.8177 20.7989 15.0146 20.7989Z" fill="#4B4B4B"/>
</svg>