<?xml version="1.0" standalone="no"?>
<!DOCTYPE svg PUBLIC "-//W3C//DTD SVG 20010904//EN"
 "http://www.w3.org/TR/2001/REC-SVG-20010904/DTD/svg10.dtd">
<svg version="1.0" xmlns="http://www.w3.org/2000/svg"
 width="256.000000pt" height="256.000000pt" viewBox="0 0 256.000000 256.000000"
 preserveAspectRatio="xMidYMid meet">
<g transform="translate(0.000000,256.000000) scale(0.100000,-0.100000)"
fill="#444444" stroke="none">
<path d="M1775 2400 c-98 -99 -156 -163 -150 -169 6 -4 57 -49 115 -98 140
-119 316 -296 415 -416 44 -53 82 -97 85 -97 3 0 77 72 164 159 l159 160 -17
44 c-9 25 -40 78 -68 119 -61 87 -266 295 -358 363 -61 45 -153 95 -175 95 -6
0 -82 -72 -170 -160z"/>
<path d="M839 1463 l-627 -628 -105 -416 -105 -416 417 104 416 104 628 627
c345 345 627 630 627 633 0 16 -179 219 -291 331 -114 113 -313 288 -328 288
-3 0 -288 -282 -632 -627z m-453 -795 c60 -62 154 -74 231 -28 46 27 48 26 22
-12 -32 -44 -37 -139 -12 -187 27 -52 82 -91 139 -99 l49 -8 -25 -16 c-14 -8
-121 -39 -238 -68 l-214 -53 -70 71 -71 70 53 214 c66 265 68 269 90 200 10
-30 31 -67 46 -84z"/>
</g>
</svg>
