<svg width="18" height="18" viewBox="0 0 18 18" fill="none" xmlns="http://www.w3.org/2000/svg">
<path d="M13.3924 10.8165H8.7696V7.38609C8.9213 7.3787 9.06117 7.36606 9.20105 7.36582C11.6056 7.36415 14.0103 7.37178 16.4151 7.35533C16.776 7.35295 16.9303 7.45427 16.9811 7.83214C17.5433 12.0204 15.5116 16.8161 10.3919 17.8188C9.23411 18.0629 8.03986 18.0603 6.88304 17.8112C5.72622 17.5621 4.63143 17.0717 3.66636 16.3704C2.7013 15.669 1.88648 14.7717 1.2723 13.7338C0.658113 12.6959 0.257623 11.5396 0.095592 10.3363C-0.574084 5.49579 2.3338 1.21361 6.96818 0.204935C9.68562 -0.386541 12.1108 0.322706 14.275 2.06876C14.3374 2.1193 14.3975 2.17318 14.4448 2.21347L11.935 4.80061C11.215 4.28269 10.3983 3.9241 9.53646 3.74759C8.85901 3.6369 8.16689 3.66604 7.50051 3.8333C6.83413 4.00056 6.20685 4.30259 5.6553 4.72175C5.10375 5.14092 4.63897 5.66882 4.28812 6.27463C3.93727 6.88044 3.70736 7.55201 3.61183 8.25015C3.5163 8.94829 3.55705 9.65899 3.73172 10.3408C3.90638 11.0225 4.21145 11.6617 4.62912 12.221C5.04678 12.7802 5.56868 13.2483 6.16432 13.598C6.75996 13.9477 7.41742 14.1719 8.0983 14.2576C9.76843 14.4752 11.2588 14.0756 12.4655 12.8097C12.9667 12.2594 13.2903 11.5633 13.3917 10.8167" fill="black"/>
</svg>
