<svg width="15" height="20" viewBox="0 0 15 20" fill="none" xmlns="http://www.w3.org/2000/svg">
<path d="M0 13.6161V19.166H14.4V13.6161C14.4 12.5986 13.59 11.7661 12.6 11.7661H1.8C0.810001 11.7661 0 12.5986 0 13.6161ZM12.6 15.466H1.8V13.6161H12.6V15.466ZM7.20001 0.66626C4.71601 0.66626 2.7 2.73823 2.7 5.29119L7.20001 11.7661L11.7 5.29119C11.7 2.73823 9.68402 0.66626 7.20001 0.66626ZM7.20001 8.99114L4.50001 5.29119C4.50001 3.75571 5.70601 2.51623 7.20001 2.51623C8.69401 2.51623 9.90002 3.75571 9.90002 5.29119L7.20001 8.99114Z" fill="black" fill-opacity="0.5"/>
</svg>
