<svg width="16" height="19" viewBox="0 0 16 19" fill="none" xmlns="http://www.w3.org/2000/svg">
<path d="M7.58974 18.5C8.63333 18.5 9.48718 17.6462 9.48718 16.6026H5.69231C5.69231 17.6462 6.54615 18.5 7.58974 18.5ZM13.2821 12.8077V8.0641C13.2821 5.15154 11.7356 2.71333 9.01282 2.0682V1.42308C9.01282 0.635641 8.37718 0 7.58974 0C6.80231 0 6.16667 0.635641 6.16667 1.42308V2.0682C3.45333 2.71333 1.89744 5.14205 1.89744 8.0641V12.8077L0 14.7051V15.6538H15.1795V14.7051L13.2821 12.8077ZM11.3846 13.7564H3.79487V8.0641C3.79487 5.71128 5.22744 3.79487 7.58974 3.79487C9.95205 3.79487 11.3846 5.71128 11.3846 8.0641V13.7564Z" fill="black" fill-opacity="0.5"/>
</svg>
