<svg width="18" height="20" viewBox="0 0 18 20" fill="none" xmlns="http://www.w3.org/2000/svg">
<path d="M9 2.97873C10.2375 2.97873 11.25 4.01933 11.25 5.29119C11.25 6.56305 10.2375 7.60366 9 7.60366C7.7625 7.60366 6.75 6.56305 6.75 5.29119C6.75 4.01933 7.7625 2.97873 9 2.97873ZM9 14.5411C12.0375 14.5411 15.525 16.0326 15.75 16.8535H2.25C2.50875 16.021 5.97375 14.5411 9 14.5411ZM9 0.66626C6.51375 0.66626 4.5 2.73592 4.5 5.29119C4.5 7.84647 6.51375 9.91612 9 9.91612C11.4862 9.91612 13.5 7.84647 13.5 5.29119C13.5 2.73592 11.4862 0.66626 9 0.66626ZM9 12.2286C5.99625 12.2286 0 13.7779 0 16.8535V19.166H18V16.8535C18 13.7779 12.0037 12.2286 9 12.2286Z" fill="black" fill-opacity="0.5"/>
</svg>
