<?xml version="1.0" encoding="utf-8"?>
<!-- Generator: Adobe Illustrator 26.3.1, SVG Export Plug-In . SVG Version: 6.00 Build 0)  -->
<svg version="1.1" id="Layer_1" xmlns="http://www.w3.org/2000/svg" xmlns:xlink="http://www.w3.org/1999/xlink" x="0px" y="0px"
	 viewBox="0 0 100 101" style="enable-background:new 0 0 100 101;" xml:space="preserve">
<path d="M50,70.2c5.3,0,9.7-1.8,13.4-5.5c3.7-3.7,5.5-8.1,5.5-13.4s-1.8-9.7-5.5-13.4c-3.7-3.7-8.1-5.5-13.4-5.5s-9.7,1.8-13.4,5.5
	c-3.7,3.7-5.5,8.1-5.5,13.4S33,61,36.6,64.7C40.3,68.3,44.7,70.2,50,70.2z M50,63.7c-3.5,0-6.4-1.2-8.8-3.6
	c-2.4-2.4-3.6-5.3-3.6-8.8c0-3.5,1.2-6.4,3.6-8.8c2.4-2.4,5.3-3.6,8.8-3.6s6.4,1.2,8.8,3.6c2.4,2.4,3.6,5.3,3.6,8.8
	c0,3.5-1.2,6.4-3.6,8.8C56.4,62.5,53.5,63.7,50,63.7z M50,84.6c-10.8,0-20.6-3.1-29.3-9.2S5.5,61.2,1.2,51.3
	C5.5,41.4,12,33.4,20.7,27.2S39.2,18,50,18s20.6,3.1,29.3,9.2c8.7,6.1,15.2,14.2,19.5,24.1C94.5,61.2,88,69.2,79.3,75.4
	C70.6,81.5,60.8,84.6,50,84.6z M50,51.3L50,51.3L50,51.3L50,51.3L50,51.3L50,51.3L50,51.3L50,51.3L50,51.3z M50,77.9
	c9,0,17.2-2.4,24.7-7.3s13.2-11.3,17.1-19.4c-3.9-8.1-9.6-14.5-17.1-19.4S59,24.7,50,24.7s-17.2,2.4-24.7,7.3S12,43.2,8,51.3
	c4,8.1,9.7,14.5,17.3,19.4S41,77.9,50,77.9z"/>
</svg>
