<svg width="18" height="19" viewBox="0 0 18 19" fill="none" xmlns="http://www.w3.org/2000/svg">
<path d="M17.9993 9.15521C17.9668 10.7375 17.9583 11.9654 17.9118 13.1915C17.9029 14.2371 17.6141 15.26 17.077 16.148C16.7254 16.7041 16.2659 17.1797 15.7272 17.545C15.1886 17.9103 14.5824 18.1573 13.9466 18.2708C13.1798 18.4087 12.4018 18.4701 11.6235 18.4542C10.3356 18.4664 9.04764 18.4787 7.75827 18.4657C6.74629 18.4559 5.73096 18.4544 4.72375 18.3691C3.04585 18.2269 1.67491 17.4957 0.789813 15.9637C0.386246 15.249 0.150398 14.4474 0.101005 13.6227C-0.0578406 11.4655 0.0196742 9.30376 0.01395 7.14393C0.013473 6.40512 0.0418553 5.66262 0.102913 4.92724C0.250072 3.14834 0.955576 1.69448 2.51231 0.775986C3.19256 0.383237 3.95027 0.153316 4.72899 0.103353C6.87556 -0.0633342 9.02451 0.0239316 11.1725 0.0148618C11.8561 0.0119203 12.5422 0.0415808 13.2237 0.105069C14.991 0.269795 16.4151 1.03313 17.2888 2.68799C17.6423 3.34902 17.8439 4.0845 17.8779 4.83801C17.943 6.39409 17.9678 7.95114 18 9.15521H17.9993ZM16.3338 8.98681H16.3426C16.3426 8.24677 16.3615 7.50599 16.3374 6.76668C16.3267 6.02189 16.2769 5.27823 16.1883 4.53895C16.1023 3.87146 15.8086 3.25044 15.351 2.76863C14.8933 2.28681 14.2964 1.97003 13.6492 1.86558C12.8633 1.73721 12.0678 1.68134 11.2722 1.69865C9.76165 1.67691 8.25071 1.67691 6.73937 1.69865C6.00265 1.70621 5.26682 1.75317 4.53485 1.83935C3.88894 1.90443 3.28015 2.17986 2.79723 2.62547C2.31431 3.07109 1.98251 3.6636 1.85022 4.31662C1.69408 5.14354 1.62832 5.98579 1.65416 6.82772C1.63031 8.20583 1.63198 9.58468 1.64796 10.9628C1.6583 11.8453 1.69399 12.7277 1.75505 13.6102C1.7903 14.2012 1.97512 14.7725 2.29121 15.2675C2.91133 16.2304 3.8396 16.6338 4.91145 16.7113C5.82684 16.7775 6.74676 16.7956 7.66478 16.8047C8.88832 16.8167 10.1128 16.8155 11.3361 16.7885C12.0785 16.7883 12.82 16.7371 13.5557 16.6351C14.163 16.5635 14.7344 16.3021 15.1925 15.8861C15.6507 15.4702 15.9735 14.9197 16.1175 14.309C16.2751 13.655 16.3462 12.9821 16.3288 12.3085C16.3452 11.2015 16.3333 10.0941 16.3333 8.98681" fill="black" fill-opacity="0.87"/>
<path d="M8.98958 13.9909C8.07392 13.9905 7.17901 13.7106 6.41842 13.1866C5.65783 12.6626 5.06585 11.9182 4.71761 11.0478C4.36937 10.1774 4.28056 9.22038 4.46247 8.29805C4.64437 7.37573 5.08878 6.52974 5.7393 5.86744C6.38981 5.20514 7.21711 4.7564 8.1162 4.57816C9.01528 4.39991 9.94563 4.50021 10.7892 4.86631C11.6327 5.23242 12.3514 5.84782 12.854 6.63444C13.3567 7.42105 13.6206 8.3434 13.6123 9.28445C13.5984 10.536 13.1055 11.7315 12.2404 12.6123C11.3752 13.4932 10.2074 13.9884 8.98958 13.9909ZM11.9793 9.25675C11.9823 8.65002 11.8104 8.05596 11.4853 7.54952C11.1602 7.04308 10.6964 6.64694 10.1525 6.41109C9.60859 6.17524 9.00888 6.11024 8.42906 6.22429C7.84923 6.33834 7.31526 6.62633 6.89451 7.05193C6.47376 7.47753 6.18509 8.02167 6.0649 8.6157C5.94472 9.20973 5.99841 9.82704 6.21921 10.3897C6.44 10.9524 6.81801 11.4353 7.30553 11.7775C7.79306 12.1196 8.36826 12.3057 8.95858 12.3123C9.35241 12.3165 9.74317 12.2408 10.1084 12.0893C10.4737 11.9379 10.8062 11.7138 11.0869 11.4298C11.3676 11.1459 11.5909 10.8077 11.7441 10.4348C11.8972 10.0619 11.9772 9.66153 11.9793 9.25675Z" fill="black" fill-opacity="0.87"/>
<path d="M13.7778 5.41315C13.5648 5.41085 13.3573 5.34363 13.1815 5.22C13.0057 5.09638 12.8695 4.92191 12.7903 4.71869C12.711 4.51548 12.6922 4.29266 12.7363 4.07847C12.7803 3.86427 12.8852 3.66832 13.0377 3.51545C13.1902 3.36258 13.3834 3.25966 13.5929 3.21973C13.8023 3.17979 14.0186 3.20464 14.2142 3.29112C14.4099 3.37761 14.5762 3.52183 14.6921 3.70554C14.808 3.88924 14.8682 4.10416 14.8652 4.32307C14.866 4.4688 14.8383 4.61322 14.7836 4.74768C14.729 4.88215 14.6485 5.0039 14.547 5.10566C14.4454 5.20742 14.325 5.2871 14.1929 5.33994C14.0607 5.39277 13.9196 5.41767 13.7778 5.41315Z" fill="black" fill-opacity="0.87"/>
</svg>
