<svg width="47" height="46" viewBox="0 0 47 46" fill="none" xmlns="http://www.w3.org/2000/svg">
<path d="M23.3417 0.164795C13.8778 0.164795 11.1099 0.174561 10.5719 0.219208C8.62973 0.380701 7.42119 0.686598 6.10457 1.34234C5.0899 1.84635 4.28967 2.43059 3.4999 3.24957C2.06158 4.74313 1.18988 6.5806 0.874317 8.76478C0.720896 9.82512 0.676265 10.0414 0.667199 15.4575C0.663712 17.2629 0.667199 19.6389 0.667199 22.8259C0.667199 32.2853 0.67766 35.0513 0.722988 35.5884C0.879896 37.4789 1.17628 38.6683 1.80391 39.9694C3.00338 42.4598 5.29423 44.3293 7.99303 45.0269C8.9275 45.2676 9.95961 45.4002 11.2846 45.4629C11.846 45.4874 17.5679 45.5048 23.2933 45.5048C29.0186 45.5048 34.744 45.4978 35.2914 45.4699C36.8256 45.3977 37.7165 45.2781 38.7016 45.0235C40.0397 44.6802 41.2869 44.0488 42.3559 43.1735C43.4249 42.2981 44.2899 41.1998 44.8907 39.9554C45.5061 38.6858 45.8182 37.451 45.9594 35.6593C45.9901 35.2686 46.003 29.0401 46.003 22.82C46.003 16.5988 45.989 10.3818 45.9584 9.99115C45.8154 8.17042 45.5033 6.94614 44.868 5.6521C44.3467 4.5928 43.7679 3.80172 42.9276 2.99286C41.4283 1.55999 39.5942 0.687993 37.4083 0.372679C36.3493 0.219556 36.1384 0.174212 30.7199 0.164795H23.3417Z" fill="url(#paint0_radial_5540_54993)"/>
<path d="M23.3417 0.164795C13.8778 0.164795 11.1099 0.174561 10.5719 0.219208C8.62973 0.380701 7.42119 0.686598 6.10457 1.34234C5.0899 1.84635 4.28967 2.43059 3.4999 3.24957C2.06158 4.74313 1.18988 6.5806 0.874317 8.76478C0.720896 9.82512 0.676265 10.0414 0.667199 15.4575C0.663712 17.2629 0.667199 19.6389 0.667199 22.8259C0.667199 32.2853 0.67766 35.0513 0.722988 35.5884C0.879896 37.4789 1.17628 38.6683 1.80391 39.9694C3.00338 42.4598 5.29423 44.3293 7.99303 45.0269C8.9275 45.2676 9.95961 45.4002 11.2846 45.4629C11.846 45.4874 17.5679 45.5048 23.2933 45.5048C29.0186 45.5048 34.744 45.4978 35.2914 45.4699C36.8256 45.3977 37.7165 45.2781 38.7016 45.0235C40.0397 44.6802 41.2869 44.0488 42.3559 43.1735C43.4249 42.2981 44.2899 41.1998 44.8907 39.9554C45.5061 38.6858 45.8182 37.451 45.9594 35.6593C45.9901 35.2686 46.003 29.0401 46.003 22.82C46.003 16.5988 45.989 10.3818 45.9584 9.99115C45.8154 8.17042 45.5033 6.94614 44.868 5.6521C44.3467 4.5928 43.7679 3.80172 42.9276 2.99286C41.4283 1.55999 39.5942 0.687993 37.4083 0.372679C36.3493 0.219556 36.1384 0.174212 30.7199 0.164795H23.3417Z" fill="url(#paint1_radial_5540_54993)"/>
<path d="M23.3312 6.09424C18.7858 6.09424 18.2153 6.11412 16.4301 6.19539C14.6483 6.27701 13.4321 6.55919 12.3679 6.97321C11.2671 7.40084 10.3334 7.97287 9.40307 8.90381C8.47209 9.83441 7.90025 10.7685 7.47137 11.8693C7.05643 12.9342 6.774 14.1511 6.6938 15.9328C6.6143 17.7186 6.59338 18.2896 6.59338 22.8366C6.59338 27.3835 6.61361 27.9524 6.6945 29.7382C6.77644 31.5206 7.05853 32.7372 7.47207 33.8018C7.8999 34.9029 8.47174 35.837 9.40238 36.7676C10.3323 37.6989 11.2661 38.2723 12.3662 38.6999C13.4311 39.114 14.6476 39.3961 16.429 39.4777C18.2143 39.559 18.7844 39.5789 23.3295 39.5789C27.8753 39.5789 28.444 39.559 30.2292 39.4777C32.011 39.3961 33.2286 39.114 34.2935 38.6999C35.3939 38.2723 36.3263 37.6989 37.2562 36.7676C38.1872 35.837 38.7591 34.9029 39.1879 33.8021C39.5994 32.7372 39.8818 31.5203 39.9655 29.7386C40.0457 27.9527 40.0666 27.3835 40.0666 22.8366C40.0666 18.2896 40.0457 17.719 39.9655 15.9331C39.8818 14.1508 39.5994 12.9342 39.1879 11.8696C38.7591 10.7685 38.1872 9.83441 37.2562 8.90381C36.3253 7.97252 35.3943 7.40049 34.2924 6.97321C33.2255 6.55919 32.0086 6.27701 30.2268 6.19539C28.4415 6.11412 27.8732 6.09424 23.3263 6.09424H23.3312ZM21.8298 9.11135C22.2754 9.11065 22.7726 9.11135 23.3312 9.11135C27.7999 9.11135 28.3296 9.12739 30.0943 9.20761C31.7261 9.28226 32.6118 9.55502 33.2017 9.78418C33.9828 10.0876 34.5396 10.4504 35.1251 11.0364C35.7109 11.6223 36.0735 12.1804 36.3776 12.9617C36.6066 13.5512 36.8797 14.4372 36.9539 16.0695C37.0341 17.8344 37.0516 18.3646 37.0516 22.8327C37.0516 27.3008 37.0341 27.831 36.9539 29.5959C36.8793 31.2283 36.6066 32.1143 36.3776 32.7037C36.0742 33.485 35.7109 34.0414 35.1251 34.627C34.5393 35.213 33.9831 35.5757 33.2017 35.8792C32.6125 36.1094 31.7261 36.3815 30.0943 36.4561C28.3299 36.5363 27.7999 36.5538 23.3312 36.5538C18.8621 36.5538 18.3325 36.5363 16.5682 36.4561C14.9363 36.3808 14.0507 36.108 13.4604 35.8788C12.6793 35.5754 12.1214 35.2126 11.5356 34.6267C10.9498 34.0407 10.5872 33.484 10.2831 32.7023C10.0541 32.1129 9.78105 31.2269 9.70678 29.5945C9.62658 27.8296 9.61054 27.2994 9.61054 22.8285C9.61054 18.3576 9.62658 17.8303 9.70678 16.0653C9.78139 14.433 10.0541 13.547 10.2831 12.9569C10.5865 12.1755 10.9498 11.6175 11.5356 11.0315C12.1214 10.4455 12.6793 10.0827 13.4604 9.7786C14.0503 9.54839 14.9363 9.27633 16.5682 9.20134C18.1121 9.13158 18.7105 9.11065 21.8298 9.10716V9.11135ZM32.2652 11.8913C31.8679 11.8913 31.4796 12.0091 31.1493 12.2299C30.819 12.4507 30.5616 12.7645 30.4096 13.1317C30.2576 13.4988 30.2179 13.9028 30.2954 14.2926C30.373 14.6823 30.5643 15.0403 30.8453 15.3212C31.1262 15.6022 31.4841 15.7935 31.8738 15.8709C32.2634 15.9484 32.6673 15.9085 33.0343 15.7563C33.4012 15.6041 33.7149 15.3465 33.9355 15.016C34.1561 14.6855 34.2737 14.297 34.2736 13.8997C34.2736 12.7905 33.374 11.8906 32.2652 11.8906V11.8913ZM23.3312 14.2387C18.5846 14.2387 14.7362 18.0884 14.7362 22.8366C14.7362 27.5848 18.5846 31.4327 23.3312 31.4327C28.0778 31.4327 31.9252 27.5848 31.9252 22.8366C31.9252 18.0884 28.0775 14.2387 23.3309 14.2387H23.3312ZM23.3312 17.2558C26.4122 17.2558 28.9102 19.7542 28.9102 22.8366C28.9102 25.9186 26.4122 28.4173 23.3312 28.4173C20.2499 28.4173 17.7523 25.9186 17.7523 22.8366C17.7523 19.7542 20.2499 17.2558 23.3312 17.2558Z" fill="white"/>
<defs>
<radialGradient id="paint0_radial_5540_54993" cx="0" cy="0" r="1" gradientUnits="userSpaceOnUse" gradientTransform="translate(12.7084 48.9969) rotate(-90) scale(44.9353 41.7909)">
<stop stop-color="#FFDD55"/>
<stop offset="0.1" stop-color="#FFDD55"/>
<stop offset="0.5" stop-color="#FF543E"/>
<stop offset="1" stop-color="#C837AB"/>
</radialGradient>
<radialGradient id="paint1_radial_5540_54993" cx="0" cy="0" r="1" gradientUnits="userSpaceOnUse" gradientTransform="translate(-6.92859 3.43101) rotate(78.6813) scale(20.0862 82.7918)">
<stop stop-color="#3771C8"/>
<stop offset="0.128" stop-color="#3771C8"/>
<stop offset="1" stop-color="#6600FF" stop-opacity="0"/>
</radialGradient>
</defs>
</svg>
