<svg width="17" height="19" viewBox="0 0 17 19" fill="none" xmlns="http://www.w3.org/2000/svg">
<path d="M8.44565 0C3.77898 0 0 4.14394 0 9.24986C0 14.3558 3.77898 18.4997 8.44565 18.4997C13.1208 18.4997 16.9082 14.3558 16.9082 9.24986C16.9082 4.14394 13.1208 0 8.44565 0ZM14.3043 5.54992H11.8104C11.5398 4.39368 11.151 3.2837 10.6437 2.25697C12.1993 2.83971 13.4927 4.02369 14.3043 5.54992ZM8.4541 1.88697C9.15579 2.99695 9.70531 4.22719 10.0688 5.54992H6.83937C7.20289 4.22719 7.75241 2.99695 8.4541 1.88697ZM1.91063 11.0998C1.77536 10.5078 1.69082 9.8881 1.69082 9.24986C1.69082 8.61162 1.77536 7.99188 1.91063 7.39989H4.76811C4.70048 8.01038 4.64976 8.62087 4.64976 9.24986C4.64976 9.87885 4.70048 10.4893 4.76811 11.0998H1.91063ZM2.60386 12.9498H5.09782C5.36835 14.106 5.75724 15.216 6.26449 16.2428C4.70893 15.66 3.41546 14.4853 2.60386 12.9498ZM5.09782 5.54992H2.60386C3.41546 4.01444 4.70893 2.83971 6.26449 2.25697C5.75724 3.2837 5.36835 4.39368 5.09782 5.54992ZM8.4541 16.6127C7.75241 15.5028 7.20289 14.2725 6.83937 12.9498H10.0688C9.70531 14.2725 9.15579 15.5028 8.4541 16.6127ZM10.4324 11.0998H6.47584C6.39975 10.4893 6.34058 9.87885 6.34058 9.24986C6.34058 8.62087 6.39975 8.00113 6.47584 7.39989H10.4324C10.5084 8.00113 10.5676 8.62087 10.5676 9.24986C10.5676 9.87885 10.5084 10.4893 10.4324 11.0998ZM10.6437 16.2428C11.151 15.216 11.5398 14.106 11.8104 12.9498H14.3043C13.4927 14.476 12.1993 15.66 10.6437 16.2428ZM12.1401 11.0998C12.2077 10.4893 12.2584 9.87885 12.2584 9.24986C12.2584 8.62087 12.2077 8.01038 12.1401 7.39989H14.9976C15.1328 7.99188 15.2174 8.61162 15.2174 9.24986C15.2174 9.8881 15.1328 10.5078 14.9976 11.0998H12.1401Z" fill="black" fill-opacity="0.5"/>
</svg>
