<?xml version="1.0" standalone="no"?>
<!DOCTYPE svg PUBLIC "-//W3C//DTD SVG 20010904//EN"
 "http://www.w3.org/TR/2001/REC-SVG-20010904/DTD/svg10.dtd">
<svg version="1.0" xmlns="http://www.w3.org/2000/svg"
 width="100.000000pt" height="101.000000pt" viewBox="0 0 100.000000 101.000000"
 preserveAspectRatio="xMidYMid meet">

<g transform="translate(0.000000,101.000000) scale(0.100000,-0.100000)"
fill="#000000" stroke="none">
<path d="M234 866 c-91 -40 -154 -139 -154 -242 0 -98 25 -134 235 -344 l185
-185 190 190 c213 213 233 241 233 340 -1 104 -65 202 -159 241 -55 23 -152
18 -211 -11 l-50 -25 -54 25 c-62 28 -162 34 -215 11z m169 -40 c20 -8 52 -25
70 -39 l33 -25 31 29 c105 93 285 39 332 -100 35 -107 5 -163 -203 -370 l-164
-163 -172 173 c-94 96 -179 188 -188 204 -10 18 -16 54 -17 90 0 147 141 249
278 201z"/>
</g>
</svg>
