<svg width="19" height="20" viewBox="0 0 19 20" fill="none" xmlns="http://www.w3.org/2000/svg">
<path d="M14.7167 0H4.28331C1.9177 0 0 1.97094 0 4.40223V15.1253C0 17.5565 1.9177 19.5275 4.28331 19.5275H14.7167C17.0823 19.5275 19 17.5565 19 15.1253V4.40223C19 1.97094 17.0823 0 14.7167 0Z" fill="black"/>
<path d="M15.8341 8.84334C15.8341 5.93069 12.9924 3.56055 9.49938 3.56055C6.00635 3.56055 3.16467 5.93069 3.16467 8.84334C3.16467 11.4551 5.42092 13.6428 8.4621 14.056C8.66873 14.1017 8.94957 14.1957 9.02023 14.3769C9.08435 14.5417 9.06238 14.7998 9.04101 14.9658C9.04101 14.9658 8.96679 15.4253 8.95076 15.523C8.92285 15.6877 8.8231 16.1667 9.49938 15.8744C10.1757 15.5821 13.1474 13.6666 14.4762 12.0941C15.3941 11.0597 15.8341 10.0077 15.8341 8.84334Z" fill="white"/>
<path d="M13.7269 10.5272H11.9457C11.9142 10.5272 11.884 10.5144 11.8617 10.4915C11.8394 10.4686 11.8269 10.4376 11.8269 10.4052V7.56455V7.5615C11.8269 7.52913 11.8394 7.49809 11.8617 7.4752C11.884 7.45231 11.9142 7.43945 11.9457 7.43945H13.7269C13.7584 7.43945 13.7886 7.45231 13.8109 7.4752C13.8332 7.49809 13.8457 7.52913 13.8457 7.5615V8.02345C13.8457 8.05582 13.8332 8.08686 13.8109 8.10975C13.7886 8.13263 13.7584 8.14549 13.7269 8.14549H12.5174V8.62453H13.7269C13.7584 8.62453 13.7886 8.63739 13.8109 8.66028C13.8332 8.68316 13.8457 8.71421 13.8457 8.74657V9.21584C13.8457 9.24821 13.8332 9.27925 13.8109 9.30214C13.7886 9.32503 13.7584 9.33789 13.7269 9.33789H12.5174V9.81753H13.7269C13.7584 9.81753 13.7886 9.8304 13.8109 9.85328C13.8332 9.87617 13.8457 9.90721 13.8457 9.93958V10.4009C13.8462 10.4173 13.8436 10.4336 13.8378 10.4489C13.8321 10.4642 13.8235 10.4782 13.8124 10.49C13.8013 10.5018 13.788 10.5112 13.7733 10.5176C13.7587 10.524 13.7429 10.5272 13.7269 10.5272Z" fill="black"/>
<path d="M7.14205 10.5268C7.17355 10.5268 7.20375 10.5139 7.22602 10.491C7.24829 10.4681 7.2608 10.4371 7.2608 10.4047V9.94337C7.2608 9.911 7.24829 9.87996 7.22602 9.85707C7.20375 9.83418 7.17355 9.82132 7.14205 9.82132H5.93259V7.56345C5.93259 7.53108 5.92008 7.50004 5.89781 7.47715C5.87554 7.45427 5.84533 7.44141 5.81384 7.44141H5.36497C5.33347 7.44141 5.30327 7.45427 5.281 7.47715C5.25873 7.50004 5.24622 7.53108 5.24622 7.56345V10.4029C5.24622 10.4352 5.25873 10.4663 5.281 10.4892C5.30327 10.5121 5.33347 10.5249 5.36497 10.5249H7.14621L7.14205 10.5268Z" fill="black"/>
<path d="M8.21367 7.43555H7.7648C7.69791 7.43555 7.64368 7.49128 7.64368 7.56003V10.4013C7.64368 10.47 7.69791 10.5258 7.7648 10.5258H8.21367C8.28056 10.5258 8.33479 10.47 8.33479 10.4013V7.56003C8.33479 7.49128 8.28056 7.43555 8.21367 7.43555Z" fill="black"/>
<path d="M11.2715 7.43555H10.8226C10.7911 7.43555 10.7609 7.44841 10.7386 7.4713C10.7164 7.49418 10.7039 7.52522 10.7039 7.55759V9.2455L9.43915 7.48986C9.43627 7.48521 9.43288 7.48091 9.42906 7.47705L9.42194 7.46972L9.41541 7.46423H9.41184L9.40531 7.45935H9.40175L9.39522 7.45569H9.39106H9.38453H9.38037H9.37325H9.3685H9.36137H9.35663H9.35009H8.89231C8.86082 7.45569 8.83061 7.46855 8.80834 7.49143C8.78607 7.51432 8.77356 7.54536 8.77356 7.57773V10.419C8.77356 10.4514 8.78607 10.4824 8.80834 10.5053C8.83061 10.5282 8.86082 10.541 8.89231 10.541H9.34178C9.37328 10.541 9.40348 10.5282 9.42575 10.5053C9.44802 10.4824 9.46053 10.4514 9.46053 10.419V8.7146L10.727 10.4721C10.7353 10.4845 10.7458 10.4953 10.7579 10.5038L10.765 10.5087H10.7686H10.7745H10.7804H10.7846H10.7929C10.8034 10.5113 10.8142 10.5128 10.825 10.513H11.2715C11.303 10.513 11.3332 10.5001 11.3554 10.4772C11.3777 10.4543 11.3902 10.4233 11.3902 10.3909V7.56004C11.3905 7.54381 11.3877 7.52767 11.3819 7.51258C11.3761 7.49749 11.3674 7.48374 11.3563 7.47215C11.3452 7.46056 11.332 7.45135 11.3175 7.44507C11.3029 7.43878 11.2873 7.43554 11.2715 7.43555Z" fill="black"/>
</svg>
