<?xml version="1.0" standalone="no"?>
<!DOCTYPE svg PUBLIC "-//W3C//DTD SVG 20010904//EN"
 "http://www.w3.org/TR/2001/REC-SVG-20010904/DTD/svg10.dtd">
<svg version="1.0" xmlns="http://www.w3.org/2000/svg"
 width="256.000000pt" height="256.000000pt" viewBox="0 0 256.000000 256.000000"
 preserveAspectRatio="xMidYMid meet">
<metadata>
Created by potrace 1.10, written by Peter Selinger 2001-2011
</metadata>
<g transform="translate(0.000000,256.000000) scale(0.100000,-0.100000)"
fill="#444444" stroke="none">
<path d="M1480 2545 c-36 -8 -103 -33 -150 -56 -82 -40 -95 -52 -396 -353
-289 -290 -313 -316 -348 -387 -113 -235 -77 -505 93 -691 77 -84 153 -134
261 -172 76 -27 97 -30 200 -30 98 0 126 4 187 26 89 32 145 64 223 129 64 53
70 68 50 139 -17 61 -108 130 -171 130 -11 0 -41 -18 -66 -40 -77 -67 -125
-85 -228 -85 -78 0 -97 4 -141 27 -65 34 -137 114 -158 175 -9 26 -16 78 -16
117 0 127 17 151 331 462 180 179 289 280 319 294 28 14 71 25 112 28 269 19
440 -274 289 -498 l-29 -43 47 -37 c48 -38 114 -107 143 -149 l17 -24 21 24
c192 221 205 548 30 781 -50 66 -140 142 -210 178 -115 58 -291 82 -410 55z"/>
<path d="M1312 1699 c-148 -26 -362 -161 -362 -228 0 -76 48 -144 122 -175 56
-24 76 -20 125 24 77 67 125 85 228 85 78 0 97 -4 141 -27 65 -34 137 -114
158 -175 9 -26 16 -78 16 -117 0 -127 -16 -150 -336 -467 -255 -252 -284 -278
-337 -298 -293 -108 -552 219 -378 479 l29 43 -47 37 c-47 38 -114 107 -143
149 l-17 24 -25 -29 c-47 -52 -94 -138 -122 -219 -37 -112 -38 -254 0 -371 61
-191 207 -337 400 -401 103 -33 256 -37 351 -9 149 44 177 66 506 395 221 221
315 321 336 361 132 240 102 528 -76 722 -78 84 -153 134 -259 171 -93 32
-219 43 -310 26z"/>
</g>
</svg>
