<svg width="73" height="38" viewBox="0 0 73 38" fill="none" xmlns="http://www.w3.org/2000/svg">
<path d="M6.05318 0.619999C7.78651 0.619999 9.15585 0.992666 10.1612 1.738C11.1665 2.48333 11.6692 3.532 11.6692 4.884C11.6692 5.38667 11.5738 5.83733 11.3832 6.236C11.2098 6.63467 10.9758 6.98133 10.6812 7.276C10.4038 7.55333 10.0832 7.78733 9.71918 7.978C9.37251 8.16867 9.01718 8.30733 8.65318 8.394C9.13851 8.48067 9.58918 8.628 10.0052 8.836C10.4385 9.02667 10.8112 9.28667 11.1232 9.616C11.4525 9.94533 11.7038 10.344 11.8772 10.812C12.0678 11.2627 12.1632 11.7827 12.1632 12.372C12.1632 13.048 12.0158 13.672 11.7212 14.244C11.4265 14.7987 11.0018 15.284 10.4472 15.7C9.90985 16.116 9.25118 16.4367 8.47118 16.662C7.70851 16.8873 6.85918 17 5.92318 17H0.20318V0.619999H6.05318ZM3.76518 7.172H5.45518C6.23518 7.172 6.85051 7.00733 7.30118 6.678C7.76918 6.33133 8.00318 5.82 8.00318 5.144C8.00318 4.53733 7.78651 4.08667 7.35318 3.792C6.93718 3.48 6.33051 3.324 5.53318 3.324H3.76518V7.172ZM3.76518 14.296H5.45518C6.33918 14.296 7.06718 14.1313 7.63918 13.802C8.21118 13.4553 8.49718 12.866 8.49718 12.034C8.49718 11.254 8.19385 10.6993 7.58718 10.37C6.98051 10.0233 6.23518 9.85 5.35118 9.85H3.76518V14.296ZM14.7553 3.14H20.0133C20.7906 3.14 21.4726 3.25733 22.0593 3.492C22.6606 3.712 23.1593 4.02 23.5553 4.416C23.9513 4.79733 24.2446 5.252 24.4353 5.78C24.6406 6.29333 24.7433 6.85067 24.7433 7.452C24.7433 8.00933 24.6553 8.508 24.4793 8.948C24.318 9.37333 24.1053 9.74733 23.8413 10.07C23.592 10.378 23.306 10.642 22.9833 10.862C22.6753 11.0673 22.3746 11.236 22.0813 11.368L25.4693 17H22.0153L19.3533 11.896H17.7473V17H14.7553V3.14ZM17.7473 9.586H18.9353C19.7273 9.586 20.3726 9.42467 20.8713 9.102C21.3846 8.77933 21.6413 8.244 21.6413 7.496C21.6413 6.836 21.436 6.33 21.0253 5.978C20.6293 5.61133 20.0426 5.428 19.2653 5.428H17.7473V9.586ZM30.3377 3.14V17H27.3237V3.14H30.3377ZM38.2437 3.14C39.3144 3.14 40.2897 3.27933 41.1697 3.558C42.0497 3.83667 42.8051 4.25467 43.4357 4.812C44.0664 5.36933 44.5504 6.066 44.8877 6.902C45.2397 7.72333 45.4157 8.684 45.4157 9.784C45.4157 11.0453 45.2104 12.1307 44.7997 13.04C44.3891 13.9347 43.8317 14.6827 43.1277 15.284C42.4237 15.8707 41.5951 16.3033 40.6417 16.582C39.7031 16.8607 38.7057 17 37.6497 17H33.4037V3.14H38.2437ZM36.4177 14.668H37.4517C38.0677 14.668 38.6617 14.5947 39.2337 14.448C39.8204 14.2867 40.3337 14.0227 40.7737 13.656C41.2137 13.2747 41.5657 12.776 41.8297 12.16C42.0937 11.5293 42.2257 10.7373 42.2257 9.784C42.2257 8.39067 41.8297 7.32733 41.0377 6.594C40.2457 5.846 39.1824 5.472 37.8477 5.472H36.4177V14.668ZM54.4423 2.898C55.3076 2.898 56.0776 2.97133 56.7523 3.118C57.4269 3.26467 58.0356 3.46267 58.5783 3.712L57.9403 5.758C57.4269 5.50867 56.8989 5.32533 56.3563 5.208C55.8136 5.09067 55.2783 5.032 54.7503 5.032C54.1489 5.032 53.5769 5.12733 53.0343 5.318C52.5063 5.50867 52.0443 5.80933 51.6483 6.22C51.2523 6.63067 50.9369 7.15867 50.7023 7.804C50.4676 8.43467 50.3503 9.19733 50.3503 10.092C50.3503 11.6907 50.7023 12.9227 51.4063 13.788C52.1249 14.6387 53.1443 15.064 54.4643 15.064C55.2269 15.064 55.7989 14.9907 56.1803 14.844V11.61H53.8923V9.366H59.0623V16.384C58.4903 16.6333 57.8229 16.8387 57.0603 17C56.2976 17.1613 55.4249 17.242 54.4423 17.242C53.4156 17.242 52.4549 17.088 51.5603 16.78C50.6803 16.472 49.9103 16.0173 49.2503 15.416C48.6049 14.8 48.0916 14.052 47.7103 13.172C47.3436 12.2773 47.1603 11.2507 47.1603 10.092C47.1603 8.93333 47.3436 7.90667 47.7103 7.012C48.0916 6.10267 48.6049 5.34733 49.2503 4.746C49.8956 4.14467 50.6583 3.69 51.5383 3.382C52.4329 3.05933 53.4009 2.898 54.4423 2.898ZM61.9532 0.619999H72.6132V3.376H65.5152V7.12H71.9372V9.85H65.5152V14.244H72.6912V17H61.9532V0.619999ZM10.2358 20.62C11.9691 20.62 13.3385 20.9927 14.3438 21.738C15.3491 22.4833 15.8518 23.532 15.8518 24.884C15.8518 25.3867 15.7565 25.8373 15.5658 26.236C15.3925 26.6347 15.1585 26.9813 14.8638 27.276C14.5865 27.5533 14.2658 27.7873 13.9018 27.978C13.5551 28.1687 13.1998 28.3073 12.8358 28.394C13.3211 28.4807 13.7718 28.628 14.1878 28.836C14.6211 29.0267 14.9938 29.2867 15.3058 29.616C15.6351 29.9453 15.8865 30.344 16.0598 30.812C16.2505 31.2627 16.3458 31.7827 16.3458 32.372C16.3458 33.048 16.1985 33.672 15.9038 34.244C15.6091 34.7987 15.1845 35.284 14.6298 35.7C14.0925 36.116 13.4338 36.4367 12.6538 36.662C11.8911 36.8873 11.0418 37 10.1058 37H4.3858V20.62H10.2358ZM7.9478 27.172H9.6378C10.4178 27.172 11.0331 27.0073 11.4838 26.678C11.9518 26.3313 12.1858 25.82 12.1858 25.144C12.1858 24.5373 11.9691 24.0867 11.5358 23.792C11.1198 23.48 10.5131 23.324 9.7158 23.324H7.9478V27.172ZM7.9478 34.296H9.6378C10.5218 34.296 11.2498 34.1313 11.8218 33.802C12.3938 33.4553 12.6798 32.866 12.6798 32.034C12.6798 31.254 12.3765 30.6993 11.7698 30.37C11.1631 30.0233 10.4178 29.85 9.5338 29.85H7.9478V34.296ZM28.9479 31.676C28.9479 32.5413 28.8086 33.3187 28.5299 34.008C28.2513 34.6973 27.8626 35.284 27.3639 35.768C26.8799 36.2373 26.3079 36.604 25.6479 36.868C24.9879 37.1173 24.2766 37.242 23.5139 37.242C22.7513 37.242 22.0399 37.1247 21.3799 36.89C20.7346 36.6553 20.1699 36.3107 19.6859 35.856C19.2166 35.4013 18.8426 34.844 18.5639 34.184C18.2999 33.5093 18.1679 32.7467 18.1679 31.896C18.1679 31.0013 18.3073 30.2093 18.5859 29.52C18.8646 28.816 19.2459 28.2293 19.7299 27.76C20.2286 27.276 20.8079 26.9093 21.4679 26.66C22.1279 26.4107 22.8393 26.286 23.6019 26.286C24.3646 26.286 25.0686 26.4033 25.7139 26.638C26.3739 26.8727 26.9386 27.2173 27.4079 27.672C27.8919 28.112 28.2659 28.6693 28.5299 29.344C28.8086 30.0187 28.9479 30.796 28.9479 31.676ZM25.9339 31.786C25.9339 31.1847 25.8679 30.6713 25.7359 30.246C25.6039 29.8207 25.4279 29.476 25.2079 29.212C24.9879 28.948 24.7313 28.7573 24.4379 28.64C24.1446 28.508 23.8439 28.442 23.5359 28.442C23.2279 28.442 22.9346 28.5007 22.6559 28.618C22.3773 28.7207 22.1279 28.904 21.9079 29.168C21.6879 29.4173 21.5119 29.7547 21.3799 30.18C21.2479 30.6053 21.1819 31.1407 21.1819 31.786C21.1819 32.358 21.2479 32.8567 21.3799 33.282C21.5119 33.6927 21.6879 34.03 21.9079 34.294C22.1426 34.558 22.3993 34.756 22.6779 34.888C22.9713 35.02 23.2719 35.086 23.5799 35.086C23.8879 35.086 24.1813 35.0347 24.4599 34.932C24.7386 34.8147 24.9879 34.624 25.2079 34.36C25.4279 34.096 25.6039 33.7587 25.7359 33.348C25.8679 32.9227 25.9339 32.402 25.9339 31.786ZM41.237 31.676C41.237 32.5413 41.0977 33.3187 40.819 34.008C40.5403 34.6973 40.1517 35.284 39.653 35.768C39.169 36.2373 38.597 36.604 37.937 36.868C37.277 37.1173 36.5657 37.242 35.803 37.242C35.0403 37.242 34.329 37.1247 33.669 36.89C33.0237 36.6553 32.459 36.3107 31.975 35.856C31.5057 35.4013 31.1317 34.844 30.853 34.184C30.589 33.5093 30.457 32.7467 30.457 31.896C30.457 31.0013 30.5963 30.2093 30.875 29.52C31.1537 28.816 31.535 28.2293 32.019 27.76C32.5177 27.276 33.097 26.9093 33.757 26.66C34.417 26.4107 35.1283 26.286 35.891 26.286C36.6537 26.286 37.3577 26.4033 38.003 26.638C38.663 26.8727 39.2277 27.2173 39.697 27.672C40.181 28.112 40.555 28.6693 40.819 29.344C41.0977 30.0187 41.237 30.796 41.237 31.676ZM38.223 31.786C38.223 31.1847 38.157 30.6713 38.025 30.246C37.893 29.8207 37.717 29.476 37.497 29.212C37.277 28.948 37.0203 28.7573 36.727 28.64C36.4337 28.508 36.133 28.442 35.825 28.442C35.517 28.442 35.2237 28.5007 34.945 28.618C34.6663 28.7207 34.417 28.904 34.197 29.168C33.977 29.4173 33.801 29.7547 33.669 30.18C33.537 30.6053 33.471 31.1407 33.471 31.786C33.471 32.358 33.537 32.8567 33.669 33.282C33.801 33.6927 33.977 34.03 34.197 34.294C34.4317 34.558 34.6883 34.756 34.967 34.888C35.2603 35.02 35.561 35.086 35.869 35.086C36.177 35.086 36.4703 35.0347 36.749 34.932C37.0277 34.8147 37.277 34.624 37.497 34.36C37.717 34.096 37.893 33.7587 38.025 33.348C38.157 32.9227 38.223 32.402 38.223 31.786ZM43.516 37V23.14H46.53V28.97L51.304 23.14H55.044L49.874 29.19L55.484 37H51.766L47.674 31.082L46.53 32.292V37H43.516ZM62.5668 20.334C63.6241 20.334 64.5601 20.438 65.3748 20.646C66.1894 20.854 66.9174 21.1227 67.5588 21.452L66.7528 24.104C66.0421 23.7573 65.3574 23.4973 64.6988 23.324C64.0401 23.1333 63.3988 23.038 62.7748 23.038C61.9428 23.038 61.2928 23.2027 60.8248 23.532C60.3741 23.8613 60.1488 24.3033 60.1488 24.858C60.1488 25.43 60.3481 25.8633 60.7468 26.158C61.1454 26.4527 61.7868 26.7387 62.6708 27.016L64.2308 27.51C65.5308 27.9433 66.5448 28.5587 67.2728 29.356C68.0181 30.1533 68.3908 31.1327 68.3908 32.294C68.3908 32.9873 68.2608 33.6373 68.0008 34.244C67.7408 34.8507 67.3508 35.3793 66.8308 35.83C66.3108 36.2807 65.6608 36.636 64.8808 36.896C64.1008 37.156 63.1908 37.286 62.1507 37.286C60.1921 37.286 58.3981 36.8873 56.7688 36.09L57.5748 33.438C58.3201 33.802 59.0481 34.088 59.7588 34.296C60.4694 34.4867 61.2148 34.582 61.9948 34.582C62.9134 34.582 63.6068 34.4173 64.0748 34.088C64.5428 33.7413 64.7768 33.2647 64.7768 32.658C64.7768 32.45 64.7334 32.2507 64.6468 32.06C64.5774 31.852 64.4388 31.6613 64.2308 31.488C64.0228 31.2973 63.7368 31.1153 63.3728 30.942C63.0261 30.7513 62.5668 30.5693 61.9948 30.396L60.6168 29.928C60.0101 29.72 59.4554 29.4773 58.9528 29.2C58.4501 28.9227 58.0168 28.602 57.6528 28.238C57.3061 27.874 57.0288 27.4493 56.8208 26.964C56.6301 26.4613 56.5348 25.8807 56.5348 25.222C56.5348 24.5113 56.6648 23.8613 56.9248 23.272C57.1848 22.6653 57.5661 22.1453 58.0688 21.712C58.5888 21.2787 59.2214 20.9407 59.9668 20.698C60.7294 20.4553 61.5961 20.334 62.5668 20.334Z" fill="white"/>
</svg>
