<svg width="18" height="18" viewBox="0 0 18 18" fill="none" xmlns="http://www.w3.org/2000/svg">
<path d="M1.45091 16.5256H2.51491L14.2431 4.60777L13.7111 4.06717L13.1791 3.52656L1.45091 15.4444V16.5256ZM0 18V14.8547L14.2189 0.405804C14.493 0.127311 14.8355 -0.00783993 15.2466 0.000351042C15.6577 0.00854201 16.0003 0.151884 16.2744 0.430377L17.3142 1.48701C17.5882 1.7655 17.7253 2.10952 17.7253 2.51907C17.7253 2.92862 17.5882 3.27264 17.3142 3.55114L3.09527 18H0ZM16.2018 2.4945L15.2104 1.48701L16.2018 2.4945ZM14.2431 4.60777L13.7111 4.06717L13.1791 3.52656L14.2431 4.60777Z" fill="#CC0099"/>
</svg>
