<?xml version="1.0" encoding="utf-8"?>
<!-- Generator: Adobe Illustrator 26.3.1, SVG Export Plug-In . SVG Version: 6.00 Build 0)  -->
<svg version="1.1" id="Layer_1" xmlns="http://www.w3.org/2000/svg" xmlns:xlink="http://www.w3.org/1999/xlink" x="0px" y="0px"
	 viewBox="0 0 100 101" style="enable-background:new 0 0 100 101;" xml:space="preserve">
<path d="M25.4,67.3c-3.5-3.4-6.1-7.3-7.8-11.6S15,47,15,42.6s0.8-8.7,2.5-13c1.7-4.4,4.3-8.2,7.8-11.6l3.1,3.1
	c-2.9,2.9-5.1,6.2-6.7,10.2s-2.3,7.7-2.3,11.4c0,3.7,0.8,7.5,2.3,11.4s3.8,7.3,6.7,10.2L25.4,67.3z M33.4,59.2
	c-2.3-2.2-4-4.8-5.2-7.8c-1.1-3.1-1.7-6-1.7-8.8c0-2.8,0.6-5.7,1.7-8.8s2.8-5.7,5.2-7.8l3.1,3.1c-1.7,1.7-3,3.8-4,6.3
	c-1,2.5-1.5,4.9-1.5,7.2c0,2,0.5,4.4,1.5,6.9s2.3,4.8,4,6.6L33.4,59.2z M33.7,84.6l11.6-35.4c-1-0.7-1.8-1.6-2.4-2.7
	c-0.6-1.1-0.9-2.4-0.9-3.8c0-2.2,0.8-4.1,2.3-5.6s3.4-2.3,5.6-2.3s4.1,0.8,5.6,2.3s2.3,3.4,2.3,5.6c0,1.5-0.3,2.7-0.9,3.8
	c-0.6,1.1-1.4,2-2.4,2.7l11.6,35.4h-5.2l-2.5-7.9h-17l-2.6,7.9H33.7z M43.2,71.5h13.6L50,50.7L43.2,71.5z M66.6,59.2l-3.1-3.1
	c1.7-1.7,3-3.8,4-6.3c1-2.5,1.5-4.9,1.5-7.2c0-2-0.5-4.4-1.5-6.9c-1-2.6-2.3-4.8-4-6.6l3.1-3.1c2.3,2.2,4,4.8,5.1,7.8s1.7,6,1.7,8.8
	c0,2.7-0.6,5.7-1.7,8.7C70.6,54.5,68.9,57.1,66.6,59.2z M74.6,67.3l-3.1-3.1c2.9-2.9,5.1-6.2,6.6-10.2c1.6-3.9,2.4-7.7,2.4-11.4
	c0-3.7-0.8-7.5-2.4-11.4c-1.6-3.9-3.8-7.3-6.6-10.2l3.1-3.1c3.5,3.4,6.1,7.3,7.8,11.6c1.7,4.4,2.5,8.7,2.5,13
	c0,4.4-0.8,8.7-2.4,13.1S78.3,63.9,74.6,67.3z"/>
</svg>
