<svg width="50" height="48" viewBox="0 0 50 48" fill="none" xmlns="http://www.w3.org/2000/svg">
<path d="M48.711 41.2244V41.2086H45.6753V21.6198C44.5831 21.4993 43.6173 21.1262 42.8597 20.5715C42.7116 20.6814 42.5522 20.7859 42.382 20.8791V41.2086H38.974V24.1337H28.5004H28.4684H28.4522V41.2086H7.62363V20.8791C7.45352 20.7859 7.29443 20.6814 7.14609 20.5715C6.38887 21.1262 5.42295 21.4993 4.33047 21.6198V41.2086H1.29395V44.7552C1.29395 46.1648 2.43672 47.3077 3.84629 47.3077H46.1586C47.5686 47.3077 48.711 46.1648 48.711 44.7552V41.2354L48.7114 41.2244H48.711ZM30.6477 33.0964C30.6477 32.5421 31.0979 32.0919 31.6521 32.0919H32.1133C32.6676 32.0919 33.1177 32.5421 33.1177 33.0964C33.1177 33.6564 32.6676 34.1061 32.1133 34.1061H31.6521C31.0979 34.1061 30.6477 33.6563 30.6477 33.0964Z" fill="#4B4B4B"/>
<path d="M11.9815 24.0898V34.1061H10.7024V38.2226H25.2471V34.1344V34.1221V34.1061H23.9684V24.0898H11.9815ZM21.2242 34.1061H14.7258V26.8341H21.1998H21.2242V34.0774V34.1061Z" fill="#4B4B4B"/>
<path d="M39.4733 0.692383H10.5323L0 9.68818V17.5477C0 18.9088 1.60293 20.0173 3.57324 20.0173C3.83115 20.0173 4.08906 20.0009 4.33047 19.9624C5.68809 19.7595 6.74434 19.0213 7.04883 18.0905C7.1041 17.9341 7.1415 17.7747 7.15215 17.6103C7.16777 18.0359 7.33594 18.4319 7.62363 18.7771C8.23818 19.518 9.39629 20.0173 10.7192 20.0173C12.3241 20.0173 13.6649 19.2772 14.1136 18.269C14.2132 18.0547 14.2818 17.8319 14.294 17.5974C14.3333 18.9352 15.9142 20.0174 17.8597 20.0174C19.4546 20.0174 20.7927 19.2861 21.2509 18.2875C21.3558 18.0682 21.4271 17.8389 21.4401 17.5979C21.4794 18.9353 23.0545 20.0175 25 20.0175C26.6129 20.0175 27.9572 19.2744 28.4027 18.2627C28.5008 18.0507 28.5683 17.8297 28.5805 17.5979C28.6201 18.9353 30.1952 20.0175 32.1461 20.0175C33.7425 20.0175 35.0814 19.2851 35.5385 18.2849C35.6426 18.0663 35.714 17.8378 35.7266 17.5975C35.7658 18.9353 37.3409 20.0175 39.2868 20.0175C40.6151 20.0175 41.7729 19.5182 42.382 18.7716C42.6247 18.4862 42.7776 18.1654 42.833 17.8252C42.8486 17.752 42.8594 17.6779 42.8669 17.6039C42.9051 18.7586 44.088 19.7252 45.6753 19.9625C45.9167 20.001 46.1692 20.0174 46.4325 20.0174C48.4032 20.0174 50 18.9089 50 17.5478V9.68828L39.4733 0.692383ZM44.1578 17.8829C44.0724 17.6128 44.0288 17.363 44.0288 17.1032L45.1099 15.012H45.6753H47.8927L48.9737 17.1032C48.9737 17.313 48.9371 17.5232 48.8784 17.7334C48.8616 17.7838 48.8521 17.8349 48.8299 17.8852L46.9977 15.588C47.0584 15.4072 47.1239 15.292 47.1461 15.2478C47.0965 15.3026 46.8825 15.5113 46.4983 15.5113C46.2416 15.5113 46.0581 15.4144 45.9509 15.3377C45.9227 15.3121 45.8971 15.2862 45.8811 15.2629C45.8841 15.2689 45.8906 15.2838 45.8944 15.2919C45.8864 15.2851 45.8731 15.2755 45.867 15.2698C45.8944 15.3247 45.9493 15.4399 45.9989 15.588L45.6751 15.9942L44.6921 17.2265L44.1578 17.8829ZM31.9023 15.4812C31.8416 15.466 31.7913 15.4442 31.7439 15.4221C31.6631 15.3797 31.5841 15.334 31.523 15.2618C31.5269 15.2687 31.5334 15.2843 31.538 15.2932C31.5292 15.2859 31.5151 15.2752 31.5093 15.2699C31.5425 15.3248 31.5917 15.44 31.6466 15.5881L30.5213 16.9988L30.0486 17.5916L29.8057 17.8838C29.7145 17.6236 29.6706 17.3635 29.6706 17.1033L29.7255 16.9988L30.7521 15.0121H33.5401L34.5663 16.9988L34.6212 17.1033C34.6212 17.3127 34.5847 17.518 34.5262 17.7305C34.5091 17.7819 34.4999 17.8319 34.4773 17.8853L33.7705 16.9988L32.6451 15.5881C32.6947 15.4401 32.7496 15.3249 32.7771 15.2699C32.7059 15.3355 32.4972 15.5114 32.1458 15.5114C32.0557 15.5113 31.9744 15.4995 31.9023 15.4812ZM27.3861 17.7223C27.3689 17.7769 27.3598 17.8283 27.3369 17.8848L26.6305 16.9986L25.4998 15.5879C25.5548 15.4399 25.6098 15.3247 25.6367 15.2697C25.5876 15.3189 25.4556 15.4288 25.2438 15.4818C25.2408 15.4825 25.237 15.4825 25.2335 15.4837C25.1642 15.5001 25.0866 15.5112 25.0001 15.5112C24.7243 15.5112 24.5362 15.4044 24.4352 15.3259C24.4157 15.3064 24.3959 15.2866 24.3874 15.2721C24.39 15.2771 24.3946 15.2881 24.3974 15.2937C24.389 15.2861 24.3753 15.2759 24.3691 15.2697C24.3966 15.3246 24.4516 15.4398 24.5007 15.5879L23.3758 16.9986L22.9085 17.5846L22.6598 17.8836C22.5743 17.6234 22.5305 17.3629 22.5305 17.1031L22.5854 16.9986L23.6115 15.0119H26.3943L27.4208 16.9986L27.4754 17.1031C27.4754 17.31 27.4402 17.5129 27.3861 17.7223ZM20.2404 17.7292C20.2232 17.7811 20.2137 17.8311 20.1912 17.8853L19.4844 16.9987L18.3591 15.588C18.4197 15.4072 18.48 15.292 18.5075 15.2478C18.4579 15.3026 18.2439 15.5113 17.8598 15.5113C17.5756 15.5113 17.3855 15.3973 17.2853 15.3156C17.2719 15.3019 17.254 15.2866 17.2456 15.2744C17.2464 15.2764 17.2482 15.2812 17.2494 15.2832C17.2364 15.2706 17.2188 15.2553 17.2121 15.2478C17.2396 15.292 17.2998 15.4072 17.3604 15.588L16.2352 16.9987L15.7663 17.5865L15.5191 17.8837C15.4283 17.6128 15.3845 17.3634 15.3845 17.1032L15.4394 16.9987L16.4659 15.012H19.2536L20.2802 16.9987L20.3351 17.1032C20.335 17.3122 20.2983 17.5171 20.2404 17.7292ZM3.73809 15.4839C3.66904 15.5003 3.59268 15.5114 3.50732 15.5114C3.22734 15.5114 3.03877 15.4046 2.93701 15.3264C2.91758 15.3066 2.89736 15.2867 2.88926 15.2715C2.8916 15.2769 2.89648 15.2883 2.89922 15.2943C2.89082 15.2863 2.87676 15.2761 2.87061 15.2699C2.89814 15.3248 2.95303 15.44 3.00791 15.5881L1.81543 17.0788L1.16123 17.8829C1.07588 17.6128 1.03193 17.363 1.03193 17.1032L2.11338 15.012H4.33047H4.8958L5.97725 17.1032C5.97725 17.3115 5.9418 17.5202 5.88643 17.7284C5.87002 17.7806 5.86045 17.8325 5.83867 17.8852L4.33037 15.9942L4.00684 15.588C4.05605 15.44 4.11094 15.3248 4.13848 15.2698C4.08926 15.319 3.95723 15.4293 3.74746 15.4819C3.74453 15.4827 3.74111 15.4831 3.73809 15.4839ZM13.0985 17.7285C13.0817 17.7807 13.0722 17.8326 13.0509 17.8853L12.3437 16.9987L11.2188 15.588C11.268 15.44 11.3229 15.3248 11.3503 15.2698C11.3011 15.319 11.1691 15.4293 10.9593 15.4819C10.9563 15.4826 10.9528 15.4826 10.9497 15.4834C10.8811 15.5002 10.8044 15.5113 10.7193 15.5113C10.4386 15.5113 10.2497 15.4041 10.1486 15.326C10.1288 15.3065 10.109 15.2867 10.1006 15.2718C10.1032 15.2768 10.1078 15.2878 10.1109 15.2938C10.1021 15.2862 10.0889 15.276 10.0827 15.2698C10.1102 15.3247 10.1646 15.4399 10.2196 15.588L9.08887 16.9987L8.62461 17.5809L8.37324 17.8834C8.2874 17.6129 8.24385 17.3631 8.24385 17.1033L8.29883 16.9988L9.3249 15.0121H12.1077L13.1339 16.9988L13.1888 17.1033C13.1889 17.3115 13.1534 17.5202 13.0985 17.7285ZM41.6664 17.7346C41.6496 17.7849 41.64 17.8353 41.6184 17.8852L40.9111 16.9986L39.7862 15.5879C39.8465 15.4071 39.9125 15.2919 39.9342 15.2477C39.885 15.3025 39.671 15.5112 39.2868 15.5112C39.0297 15.5112 38.8462 15.4143 38.7394 15.3376C38.7107 15.312 38.6853 15.2861 38.6696 15.2628C38.6727 15.2688 38.6788 15.2837 38.6826 15.2918C38.6746 15.285 38.6616 15.275 38.6555 15.2697C38.683 15.3246 38.7379 15.4398 38.7871 15.5879L37.6621 16.9986L37.1967 17.5822L36.9461 17.8832C36.8606 17.6127 36.8168 17.3629 36.8168 17.1031L36.8717 16.9986L37.8982 15.0119H40.6807L41.7072 16.9986L41.7617 17.1031C41.7618 17.3134 41.7252 17.5239 41.6664 17.7346Z" fill="#4B4B4B"/>
</svg>
