<svg width="17" height="14" viewBox="0 0 17 14" fill="none" xmlns="http://www.w3.org/2000/svg">
<path d="M0.0438633 1.89965C0.120497 1.51363 0.29166 1.16038 0.530689 0.868562C0.581093 0.804978 0.633753 0.748034 0.690828 0.691091C1.11434 0.265492 1.70874 0 2.35809 0H14.6419C15.2912 0 15.8835 0.265492 16.309 0.691091C16.366 0.748034 16.4186 0.804978 16.4691 0.868562C16.7083 1.16035 16.8795 1.51363 16.954 1.89965C16.9846 2.04864 17 2.2026 17 2.35825V10.9855C17 11.3165 16.9298 11.6347 16.8046 11.922C16.6885 12.1962 16.5173 12.4444 16.309 12.6525C16.2562 12.7051 16.2038 12.7535 16.1466 12.8017C15.7387 13.1395 15.2121 13.3436 14.6419 13.3436H2.35809C1.78766 13.3436 1.2588 13.1395 0.853226 12.7996C0.796183 12.7535 0.743488 12.7051 0.690828 12.6525C0.482645 12.4444 0.311481 12.1962 0.19298 11.922V11.9198C0.0678368 11.6325 3.8147e-06 11.3165 3.8147e-06 10.9856V2.35825C-3.05176e-05 2.2026 0.0151424 2.04864 0.0438633 1.89965ZM15.4558 1.54425C15.2451 1.3338 14.9622 1.2064 14.6419 1.2064H2.35809C2.03782 1.2064 1.7524 1.3338 1.54422 1.54425C1.50696 1.58173 1.47187 1.6235 1.44089 1.66501L7.87922 7.27618C8.05679 7.4318 8.27613 7.50866 8.49998 7.50866C8.72158 7.50866 8.94079 7.4318 9.12072 7.27618L15.5566 1.66262C15.5281 1.62111 15.493 1.58173 15.4558 1.54425ZM15.7936 10.9855V2.91102L11.1344 6.97559L15.7912 11.0358C15.7936 11.0204 15.7936 11.0031 15.7936 10.9855ZM2.35809 12.1369H14.6419C14.8504 12.1369 15.0456 12.0821 15.2121 11.9858L10.2988 7.70393L9.84007 8.10297C9.4562 8.43653 8.97585 8.60546 8.49998 8.60546C8.02166 8.60546 7.54134 8.43653 7.15751 8.10297L6.69904 7.70393L1.78763 11.9858C1.95441 12.0821 2.14954 12.1369 2.35809 12.1369ZM1.20637 10.9855C1.20637 11.0031 1.20637 11.0204 1.20863 11.0358L5.86544 6.97794L1.20637 2.91318V10.9855Z" fill="black" fill-opacity="0.5"/>
</svg>
