<svg width="50" height="50" viewBox="0 0 50 50" fill="none" xmlns="http://www.w3.org/2000/svg">
<path d="M25 0C11.1928 0 0 11.1928 0 25C0 38.8069 11.1928 50 25 50C38.8069 50 50 38.8069 50 25C50 11.1928 38.8069 0 25 0ZM25 43.75C14.661 43.75 6.25 35.3386 6.25 25C6.25 14.661 14.661 6.25 25 6.25C35.3386 6.25 43.75 14.661 43.75 25C43.75 35.3386 35.3386 43.75 25 43.75Z" fill="white"/>
<path d="M33.6089 35.0231L35.5178 36.9319C36.032 36.5056 36.5055 36.0321 36.9318 35.5179L35.023 33.6094C34.6118 34.1377 34.1372 34.6123 33.6089 35.0231Z" fill="white"/>
<path d="M9.11367 23.9998C9.08281 24.3293 9.06299 24.6625 9.06299 25C9.06299 25.3376 9.08281 25.6702 9.11367 25.9998H11.8057C11.7645 25.6713 11.7363 25.339 11.7363 25C11.7363 24.6604 11.7646 24.3282 11.8057 23.9998H9.11367Z" fill="white"/>
<path d="M14.9765 33.6094L13.0681 35.5179C13.4942 36.0321 13.9679 36.5056 14.4822 36.9319L16.3907 35.0231C15.8624 34.6123 15.3877 34.1377 14.9765 33.6094Z" fill="white"/>
<path d="M40.8863 23.9998H38.1943C38.2355 24.3282 38.2634 24.6605 38.2634 25C38.2634 25.3391 38.2354 25.6713 38.1943 25.9998H40.8863C40.9168 25.6702 40.9366 25.3375 40.9366 25C40.9366 24.6624 40.9168 24.3293 40.8863 23.9998Z" fill="white"/>
<path d="M23.9998 38.1943V40.8863C24.3293 40.9168 24.6625 40.9366 25 40.9366C25.3375 40.9366 25.6702 40.9168 25.9998 40.8863V38.1943C25.6713 38.2355 25.339 38.2637 25 38.2637C24.6604 38.2637 24.3282 38.2354 23.9998 38.1943Z" fill="white"/>
<path d="M16.3907 14.9765L14.4822 13.0681C13.9679 13.4942 13.4945 13.9679 13.0681 14.4822L14.9765 16.3907C15.3877 15.8624 15.8624 15.3877 16.3907 14.9765Z" fill="white"/>
<path d="M35.5178 13.0681L33.6089 14.9765C34.1372 15.3877 34.6118 15.8623 35.023 16.3907L36.9318 14.4822C36.5055 13.9679 36.032 13.4945 35.5178 13.0681Z" fill="white"/>
<path d="M24.9996 9.39258C23.7056 9.39258 22.6558 10.442 22.6558 11.7363V21.3852L12.1425 16.6866C10.9607 16.1587 9.57447 16.6881 9.04654 17.8703C8.51861 19.0522 9.04801 20.4384 10.2298 20.9663L24.0437 27.1397C24.3489 27.2762 24.6747 27.3438 24.9997 27.3438C25.446 27.3438 25.8893 27.2163 26.2753 26.9665C26.9414 26.5343 27.3434 25.7942 27.3434 25V11.7363C27.3433 10.442 26.2943 9.39258 24.9996 9.39258Z" fill="white"/>
</svg>
