<svg width="24" height="25" viewBox="0 0 24 25" fill="none" xmlns="http://www.w3.org/2000/svg">
<g opacity="0.5">
<path d="M18.5895 0.109985H5.4105C2.42236 0.109985 0 2.5996 0 5.67069V19.2156C0 22.2867 2.42236 24.7763 5.4105 24.7763H18.5895C21.5776 24.7763 24 22.2867 24 19.2156V5.67069C24 2.5996 21.5776 0.109985 18.5895 0.109985Z" fill="white"/>
<path d="M19.9995 11.2807C19.9995 7.60153 16.41 4.60767 11.9977 4.60767C7.58546 4.60767 3.99597 7.60153 3.99597 11.2807C3.99597 14.5798 6.84597 17.3432 10.6875 17.865C10.9485 17.9228 11.3032 18.0415 11.3925 18.2705C11.4735 18.4786 11.4457 18.8047 11.4187 19.0143C11.4187 19.0143 11.325 19.5947 11.3047 19.7181C11.2695 19.9262 11.1435 20.5313 11.9977 20.1621C12.852 19.7928 16.6057 17.3732 18.2842 15.3868C19.4437 14.0803 19.9995 12.7514 19.9995 11.2807Z" fill="#CC0099"/>
<path d="M17.337 13.4059H15.087C15.0472 13.4059 15.0091 13.3896 14.9809 13.3607C14.9528 13.3318 14.937 13.2926 14.937 13.2517V9.66351V9.65966C14.937 9.61877 14.9528 9.57956 14.9809 9.55064C15.0091 9.52173 15.0472 9.50549 15.087 9.50549H17.337C17.3768 9.50549 17.415 9.52173 17.4431 9.55064C17.4712 9.57956 17.487 9.61877 17.487 9.65966V10.2432C17.487 10.2841 17.4712 10.3233 17.4431 10.3522C17.415 10.3811 17.3768 10.3973 17.337 10.3973H15.8093V11.0024H17.337C17.3768 11.0024 17.415 11.0187 17.4431 11.0476C17.4712 11.0765 17.487 11.1157 17.487 11.1566V11.7494C17.487 11.7902 17.4712 11.8295 17.4431 11.8584C17.415 11.8873 17.3768 11.9035 17.337 11.9035H15.8093V12.5094H17.337C17.3768 12.5094 17.415 12.5256 17.4431 12.5545C17.4712 12.5835 17.487 12.6227 17.487 12.6636V13.2463C17.4877 13.267 17.4844 13.2876 17.4772 13.307C17.4699 13.3263 17.459 13.3439 17.445 13.3588C17.431 13.3737 17.4142 13.3855 17.3957 13.3936C17.3771 13.4017 17.3572 13.4059 17.337 13.4059Z" fill="white"/>
<path d="M9.02175 13.4059C9.06154 13.4059 9.09969 13.3897 9.12782 13.3608C9.15595 13.3319 9.17175 13.2927 9.17175 13.2518V12.669C9.17175 12.6282 9.15595 12.5889 9.12782 12.56C9.09969 12.5311 9.06154 12.5149 9.02175 12.5149H7.49401V9.66283C7.49401 9.62194 7.47821 9.58273 7.45008 9.55382C7.42195 9.52491 7.38379 9.50867 7.34401 9.50867H6.77701C6.73723 9.50867 6.69908 9.52491 6.67095 9.55382C6.64282 9.58273 6.62701 9.62194 6.62701 9.66283V13.2495C6.62701 13.2904 6.64282 13.3296 6.67095 13.3585C6.69908 13.3874 6.73723 13.4036 6.77701 13.4036H9.027L9.02175 13.4059Z" fill="white"/>
<path d="M10.3747 9.50256H9.80772C9.72322 9.50256 9.65472 9.57297 9.65472 9.65981V13.2488C9.65472 13.3356 9.72322 13.406 9.80772 13.406H10.3747C10.4592 13.406 10.5277 13.3356 10.5277 13.2488V9.65981C10.5277 9.57297 10.4592 9.50256 10.3747 9.50256Z" fill="white"/>
<path d="M14.238 9.50232H13.671C13.6312 9.50232 13.5931 9.51856 13.565 9.54748C13.5368 9.57639 13.521 9.6156 13.521 9.65648V11.7886L11.9235 9.57092C11.9199 9.56505 11.9156 9.55962 11.9108 9.55474L11.9018 9.54549L11.8935 9.53855H11.889L11.8808 9.53238H11.8763L11.868 9.52776H11.8628H11.8545H11.8493H11.8403H11.8343H11.8253H11.8193H11.811H11.2328C11.193 9.52776 11.1548 9.544 11.1267 9.57291C11.0986 9.60183 11.0828 9.64104 11.0828 9.68192V13.2709C11.0828 13.3118 11.0986 13.351 11.1267 13.3799C11.1548 13.4088 11.193 13.425 11.2328 13.425H11.8005C11.8403 13.425 11.8785 13.4088 11.9066 13.3799C11.9347 13.351 11.9505 13.3118 11.9505 13.2709V11.118L13.5503 13.3379C13.5608 13.3537 13.574 13.3672 13.5893 13.378L13.5983 13.3842H13.6028H13.6103H13.6178H13.623H13.6335C13.6468 13.3875 13.6604 13.3894 13.674 13.3896H14.238C14.2778 13.3896 14.316 13.3733 14.3441 13.3444C14.3722 13.3155 14.388 13.2763 14.388 13.2354V9.65957C14.3884 9.63907 14.3848 9.61869 14.3775 9.59963C14.3701 9.58057 14.3591 9.5632 14.3452 9.54856C14.3312 9.53391 14.3145 9.52228 14.2961 9.51434C14.2777 9.50641 14.258 9.50232 14.238 9.50232Z" fill="white"/>
</g>
</svg>
