<svg width="24" height="25" viewBox="0 0 24 25" fill="none" xmlns="http://www.w3.org/2000/svg">
<g opacity="0.5">
<path d="M18.5895 0.109863H5.4105C2.42236 0.109863 0 2.59948 0 5.67057V19.2154C0 22.2865 2.42236 24.7762 5.4105 24.7762H18.5895C21.5776 24.7762 24 22.2865 24 19.2154V5.67057C24 2.59948 21.5776 0.109863 18.5895 0.109863Z" fill="white"/>
<path d="M19.9995 11.2807C19.9995 7.60153 16.41 4.60767 11.9977 4.60767C7.58546 4.60767 3.99597 7.60153 3.99597 11.2807C3.99597 14.5798 6.84597 17.3432 10.6875 17.865C10.9485 17.9228 11.3032 18.0415 11.3925 18.2705C11.4735 18.4786 11.4457 18.8047 11.4187 19.0143C11.4187 19.0143 11.325 19.5947 11.3047 19.7181C11.2695 19.9262 11.1435 20.5313 11.9977 20.1621C12.852 19.7928 16.6057 17.3732 18.2842 15.3868C19.4437 14.0803 19.9995 12.7514 19.9995 11.2807Z" fill="#CC0099"/>
<path d="M17.337 13.4057H15.087C15.0472 13.4057 15.0091 13.3895 14.9809 13.3606C14.9528 13.3317 14.937 13.2925 14.937 13.2516V9.66339V9.65954C14.937 9.61865 14.9528 9.57943 14.9809 9.55052C15.0091 9.52161 15.0472 9.50537 15.087 9.50537H17.337C17.3768 9.50537 17.415 9.52161 17.4431 9.55052C17.4712 9.57943 17.487 9.61865 17.487 9.65954V10.243C17.487 10.2839 17.4712 10.3231 17.4431 10.3521C17.415 10.381 17.3768 10.3972 17.337 10.3972H15.8093V11.0023H17.337C17.3768 11.0023 17.415 11.0186 17.4431 11.0475C17.4712 11.0764 17.487 11.1156 17.487 11.1565V11.7492C17.487 11.7901 17.4712 11.8293 17.4431 11.8582C17.415 11.8872 17.3768 11.9034 17.337 11.9034H15.8093V12.5093H17.337C17.3768 12.5093 17.415 12.5255 17.4431 12.5544C17.4712 12.5833 17.487 12.6225 17.487 12.6634V13.2462C17.4877 13.2669 17.4844 13.2875 17.4772 13.3068C17.4699 13.3262 17.459 13.3438 17.445 13.3587C17.431 13.3736 17.4142 13.3854 17.3957 13.3935C17.3771 13.4016 17.3572 13.4057 17.337 13.4057Z" fill="white"/>
<path d="M9.02175 13.4058C9.06154 13.4058 9.09969 13.3896 9.12782 13.3607C9.15595 13.3318 9.17175 13.2925 9.17175 13.2517V12.6689C9.17175 12.628 9.15595 12.5888 9.12782 12.5599C9.09969 12.531 9.06154 12.5148 9.02175 12.5148H7.49401V9.66271C7.49401 9.62182 7.47821 9.58261 7.45008 9.5537C7.42195 9.52479 7.38379 9.50854 7.34401 9.50854H6.77701C6.73723 9.50854 6.69908 9.52479 6.67095 9.5537C6.64282 9.58261 6.62701 9.62182 6.62701 9.66271V13.2493C6.62701 13.2902 6.64282 13.3294 6.67095 13.3584C6.69908 13.3873 6.73723 13.4035 6.77701 13.4035H9.027L9.02175 13.4058Z" fill="white"/>
<path d="M10.3747 9.50244H9.80772C9.72322 9.50244 9.65472 9.57284 9.65472 9.65969V13.2486C9.65472 13.3355 9.72322 13.4059 9.80772 13.4059H10.3747C10.4592 13.4059 10.5277 13.3355 10.5277 13.2486V9.65969C10.5277 9.57284 10.4592 9.50244 10.3747 9.50244Z" fill="white"/>
<path d="M14.238 9.5022H13.671C13.6312 9.5022 13.5931 9.51844 13.565 9.54735C13.5368 9.57626 13.521 9.61547 13.521 9.65636V11.7885L11.9235 9.5708C11.9199 9.56493 11.9156 9.5595 11.9108 9.55462L11.9018 9.54536L11.8935 9.53843H11.889L11.8808 9.53226H11.8763L11.868 9.52764H11.8628H11.8545H11.8493H11.8403H11.8343H11.8253H11.8193H11.811H11.2328C11.193 9.52764 11.1548 9.54388 11.1267 9.57279C11.0986 9.6017 11.0828 9.64091 11.0828 9.6818V13.2707C11.0828 13.3116 11.0986 13.3508 11.1267 13.3798C11.1548 13.4087 11.193 13.4249 11.2328 13.4249H11.8005C11.8403 13.4249 11.8785 13.4087 11.9066 13.3798C11.9347 13.3508 11.9505 13.3116 11.9505 13.2707V11.1178L13.5503 13.3378C13.5608 13.3535 13.574 13.3671 13.5893 13.3779L13.5983 13.3841H13.6028H13.6103H13.6178H13.623H13.6335C13.6468 13.3874 13.6604 13.3892 13.674 13.3895H14.238C14.2778 13.3895 14.316 13.3732 14.3441 13.3443C14.3722 13.3154 14.388 13.2762 14.388 13.2353V9.65945C14.3884 9.63894 14.3848 9.61857 14.3775 9.59951C14.3701 9.58044 14.3591 9.56308 14.3452 9.54844C14.3312 9.53379 14.3145 9.52216 14.2961 9.51422C14.2777 9.50628 14.258 9.50219 14.238 9.5022Z" fill="white"/>
</g>
</svg>
