<svg width="50" height="42" viewBox="0 0 50 42" fill="none" xmlns="http://www.w3.org/2000/svg">
<path d="M35.3492 25.1909V25.1688L32.0979 28.4205V36.0742C32.0979 37.3361 31.0706 38.363 29.8022 38.363H15.2298C14.3909 38.363 13.578 38.2788 12.791 38.1163V30.3059C12.791 29.487 12.1276 28.83 11.3151 28.83H3.50498C3.33604 28.0434 3.2582 27.224 3.2582 26.3917V5.5436C3.2582 4.28208 4.279 3.25474 5.54707 3.25474H29.8023C31.0707 3.25474 32.0979 4.28208 32.0979 5.5436V6.6148L32.0869 7.3728L32.0979 7.36167V7.38384L35.2062 4.27563C34.6275 1.83042 32.4295 0.00317383 29.8023 0.00317383H5.54697C2.49062 0.00317383 0 2.48735 0 5.5436V26.3917C0 27.4319 0.104102 28.479 0.312012 29.493C1.54766 35.4306 6.18438 40.0669 12.1345 41.3026C13.1423 41.5109 14.1826 41.6211 15.2297 41.6211H29.8021C32.8649 41.6211 35.3491 39.1305 35.3491 36.0742V29.6736L35.3602 25.1798L35.3492 25.1909Z" fill="#4B4B4B"/>
<path d="M49.6531 5.5667L44.4331 0.346289C44.3949 0.308106 44.3461 0.29209 44.3041 0.260059C44.2614 0.227246 44.2176 0.197852 44.1718 0.171582C44.0806 0.119727 43.9903 0.0819335 43.8918 0.0564452C43.8506 0.045703 43.8094 0.0376954 43.767 0.0316407C43.7133 0.0236329 43.6614 0 43.6079 0C43.3303 0 43.0574 0.102539 42.8503 0.309375L19.7983 23.3614L17.0529 32.155C16.9239 32.5681 17.2608 32.9743 17.6632 32.9743C17.7232 32.9743 17.7841 32.9659 17.8449 32.9469L26.6388 30.201L49.6906 7.14922C50.1174 6.72256 50.1006 6.01367 49.6531 5.5667ZM26.0784 28.8027L25.9003 28.9809L20.3904 30.701L19.2991 29.61L21.0191 24.1L21.1976 23.9215L22.0262 23.8783C22.2928 23.8642 22.5447 23.9604 22.7338 24.1495C22.923 24.3388 23.0192 24.5905 23.0054 24.8575C22.9752 25.4319 23.1911 25.9947 23.5982 26.4017C24.0048 26.8084 24.5679 27.0242 25.1424 26.9944C25.4094 26.9804 25.6608 27.0772 25.85 27.2661C26.0397 27.4554 26.1358 27.707 26.1217 27.9737L26.0784 28.8027ZM44.8184 8.11982L44.8394 8.09892L45.0331 8.29268L45.3109 8.59102L45.4402 8.74121L44.8184 8.11982ZM42.3699 5.67119L42.3907 5.6498L42.7864 6.0458L43.3539 6.63437L43.6252 6.92617L42.3699 5.67119ZM40.9088 4.21016L40.9297 4.18926L41.1239 4.38379L41.4016 4.68203L41.5302 4.83164L40.9088 4.21016ZM41.421 3.70127L41.4196 3.69932L43.6233 1.49561L48.5045 6.37656L46.3004 8.58027L41.4397 3.71992L41.421 3.70127Z" fill="#4B4B4B"/>
</svg>
