<svg width="23" height="15" viewBox="0 0 23 15" fill="none" xmlns="http://www.w3.org/2000/svg">
<path d="M21.864 5C21.8603 4.83106 21.8442 4.66261 21.816 4.496L22.728 3.696L21.928 2.312L20.768 2.704C20.5111 2.48756 20.2188 2.31705 19.904 2.2L19.664 1H18.064L17.824 2.192C17.5092 2.30905 17.2169 2.47956 16.96 2.696L15.8 2.304L15 3.688L15.912 4.488C15.8838 4.65461 15.8677 4.82306 15.864 4.992C15.8677 5.16094 15.8838 5.32939 15.912 5.496L15 6.296L15.8 7.68L16.96 7.288C17.2169 7.50445 17.5092 7.67495 17.824 7.792L18.064 9H19.664L19.904 7.808C20.2188 7.69095 20.5111 7.52044 20.768 7.304L21.928 7.696L22.728 6.312L21.816 5.512C21.8446 5.34275 21.8607 5.17162 21.864 5ZM18.864 6.6C18.5475 6.6 18.2382 6.50616 17.9751 6.33035C17.712 6.15454 17.5069 5.90466 17.3858 5.61229C17.2647 5.31993 17.233 4.99823 17.2947 4.68786C17.3565 4.37749 17.5089 4.09239 17.7326 3.86863C17.9564 3.64487 18.2415 3.49248 18.5519 3.43074C18.8622 3.36901 19.1839 3.40069 19.4763 3.52179C19.7687 3.64289 20.0185 3.84797 20.1944 4.11109C20.3702 4.37421 20.464 4.68355 20.464 5C20.464 5.42435 20.2954 5.83131 19.9954 6.13137C19.6953 6.43143 19.2883 6.6 18.864 6.6Z" fill="black" fill-opacity="0.5"/>
<path d="M7.23337 7.23333C9.23157 7.23333 10.85 5.61487 10.85 3.61667C10.85 1.61846 9.23157 0 7.23337 0C5.23516 0 3.6167 1.61846 3.6167 3.61667C3.6167 5.61487 5.23516 7.23333 7.23337 7.23333ZM7.23337 1.80833C8.22795 1.80833 9.0417 2.62208 9.0417 3.61667C9.0417 4.61125 8.22795 5.425 7.23337 5.425C6.23878 5.425 5.42503 4.61125 5.42503 3.61667C5.42503 2.62208 6.23878 1.80833 7.23337 1.80833Z" fill="black" fill-opacity="0.5"/>
<path d="M7.23333 8.13745C4.81921 8.13745 0 9.34903 0 11.7541V14.4666H14.4667V11.7541C14.4667 9.34903 9.64746 8.13745 7.23333 8.13745ZM12.6583 12.6583H1.80833V11.7632C1.98917 11.1122 4.79208 9.94578 7.23333 9.94578C9.67458 9.94578 12.4775 11.1122 12.6583 11.7541V12.6583Z" fill="black" fill-opacity="0.5"/>
<path d="M11.3112 0.0452881C12.143 1.0037 12.6584 2.25145 12.6584 3.61675C12.6584 4.98204 12.143 6.22979 11.3112 7.1882C13.0833 6.96216 14.4667 5.46125 14.4667 3.61675C14.4667 1.77225 13.0833 0.27133 11.3112 0.0452881Z" fill="black" fill-opacity="0.5"/>
<path d="M14.9459 8.88806C15.7506 9.63852 16.275 10.5789 16.275 11.7543V14.4668H18.0834V11.7543C18.0834 10.4432 16.6458 9.48481 14.9459 8.88806Z" fill="black" fill-opacity="0.5"/>
</svg>
