<svg width="50" height="50" viewBox="0 0 50 50" fill="none" xmlns="http://www.w3.org/2000/svg">
<path d="M25 0C11.1931 0 0 11.1928 0 25C0 38.8072 11.1931 50 25 50C38.8076 50 50 38.8072 50 25C50 11.1928 38.8076 0 25 0ZM25 43.75C14.6614 43.75 6.25 35.3386 6.25 25C6.25 14.6614 14.6614 6.25 25 6.25C35.3386 6.25 43.75 14.6614 43.75 25C43.75 35.3386 35.3386 43.75 25 43.75Z" fill="#4B4B4B"/>
<path d="M35.592 33.8705C35.5257 33.6638 35.4477 33.4687 35.3654 33.2811C35.0068 32.4312 34.5696 31.7873 34.2225 31.4715C33.7778 31.0614 31.7651 30.0398 30.0493 29.1662C28.7965 28.5223 28.0909 27.9645 27.8879 27.7811V26.697V26.0999C27.9817 26.0648 28.071 25.9984 28.1572 25.905C28.1724 25.8893 28.1885 25.8737 28.2 25.8543C28.438 25.5853 28.6334 25.2809 28.731 24.9963C28.7424 24.9612 28.7539 24.9258 28.7661 24.8906C28.9804 24.2822 29.1445 23.5959 29.1751 23.4006C29.1781 23.3861 29.1792 23.3746 29.1811 23.3633C29.1818 23.3595 29.1834 23.3533 29.1841 23.3499C29.2734 23.377 29.3588 23.3888 29.4328 23.3888C30.3377 23.3888 30.7084 21.5359 30.7588 21.0484C30.8136 20.5571 30.3765 20.2218 30.2171 20.0929C30.2522 20.0146 30.2949 19.8978 30.3376 19.7613C30.3414 19.7533 30.3452 19.7415 30.3491 19.7301C30.404 19.5623 30.4818 19.336 30.552 19.0205C30.5948 18.8324 30.6344 18.6104 30.6695 18.3491C30.6923 18.1893 30.6963 18.0177 30.6886 17.8501C30.6771 17.4987 30.6032 17.136 30.4742 16.8046C30.3689 16.5157 30.2209 16.2507 30.0408 16.0359L30.0371 16.0321C29.9127 15.8841 29.7723 15.7315 29.6236 15.5949C29.0391 15.0296 28.348 14.5729 28.0245 14.5729C27.3691 13.3954 26.5306 12.631 24.9781 12.5252C24.8842 12.5214 24.7912 12.5214 24.6896 12.5176H24.6698C23.4995 12.5176 21.5257 13.5238 20.5194 14.8972C20.5194 14.9009 20.5194 14.9009 20.5194 14.9009C20.418 15.0374 20.3287 15.1774 20.2501 15.3183C20.1181 15.5598 19.9967 15.7863 19.8953 16.0008C19.7313 16.3478 19.6069 16.6717 19.5291 16.9952C19.4817 17.1474 19.4504 17.3034 19.4352 17.4637C19.3688 17.9161 19.3802 18.396 19.4703 18.9731V18.9769C19.5053 19.215 19.5519 19.4725 19.6144 19.7494C19.6182 19.7532 19.6182 19.757 19.6182 19.7612C19.6656 19.8977 19.7044 20.0145 19.7472 20.0928C19.5908 20.2217 19.2047 20.4356 19.2521 20.9235C19.3024 21.4148 19.6183 23.3886 20.5231 23.3886C20.6055 23.3886 20.691 23.3767 20.7848 23.3497C20.8001 23.5061 20.8825 23.9505 21.0502 24.4029C21.0968 24.5357 21.1517 24.7031 21.2097 24.8786C21.2212 24.9137 21.2334 24.9454 21.2449 24.9805C21.3425 25.2612 21.5255 25.5652 21.756 25.8266C21.7796 25.8541 21.8063 25.8814 21.83 25.9086C21.9162 25.9982 22.0055 26.0646 22.0994 26.0997V26.6849V27.7808C21.9002 27.9642 21.1907 28.5259 19.9425 29.1659C18.2259 30.0433 16.2208 31.0657 15.7761 31.4712C15.429 31.7832 14.9918 32.4309 14.6294 33.2808C14.5516 33.4685 14.473 33.6635 14.4028 33.8702C14.3373 34.0571 14.2747 34.2524 14.2236 34.455C14.1534 34.7007 14.0992 34.9544 14.0519 35.2157C13.9666 35.715 14.2708 36.1945 14.7583 36.3193C17.6171 37.0494 21.1632 37.4824 25.0054 37.4824C28.8438 37.4824 32.3853 37.0494 35.2411 36.3239C35.7324 36.1992 36.0369 35.7151 35.9467 35.2158C35.9002 34.9545 35.8415 34.7008 35.7751 34.4551C35.721 34.2527 35.6622 34.0574 35.592 33.8705Z" fill="#4B4B4B"/>
</svg>
